<mxfile host="app.diagrams.net" modified="2020-03-23T16:28:23.942Z" agent="Mozilla/5.0 (Windows NT 10.0; Win64; x64) AppleWebKit/537.36 (KHTML, like Gecko) Chrome/80.0.3987.149 Safari/537.36" etag="FlxjUmHdBWH871wHMQTe" version="12.8.8" type="github">
  <diagram name="Page-1" id="9f46799a-70d6-7492-0946-bef42562c5a5">
    <mxGraphModel dx="2844" dy="3862" grid="1" gridSize="10" guides="1" tooltips="1" connect="1" arrows="1" fold="1" page="1" pageScale="1" pageWidth="1654" pageHeight="1169" background="#ffffff" math="0" shadow="1">
      <root>
        <mxCell id="0" />
        <mxCell id="iMbrbaBTNEFGXNvbshlo-156" value="Untitled Layer" parent="0" />
        <mxCell id="iMbrbaBTNEFGXNvbshlo-157" value="" style="rounded=1;whiteSpace=wrap;html=1;glass=0;strokeColor=#260000;fillColor=#FFFFFF;fontColor=#FF0000;align=left;" parent="iMbrbaBTNEFGXNvbshlo-156" vertex="1">
          <mxGeometry x="1275" y="40" width="120" height="60" as="geometry" />
        </mxCell>
        <mxCell id="iMbrbaBTNEFGXNvbshlo-158" value="" style="rounded=0;whiteSpace=wrap;html=1;glass=0;strokeColor=#260000;fillColor=#FFFFFF;fontColor=#FF0000;align=left;" parent="iMbrbaBTNEFGXNvbshlo-156" vertex="1">
          <mxGeometry x="1275" y="40" width="120" height="60" as="geometry" />
        </mxCell>
        <mxCell id="iMbrbaBTNEFGXNvbshlo-217" style="edgeStyle=elbowEdgeStyle;rounded=0;orthogonalLoop=1;jettySize=auto;elbow=vertical;html=1;startArrow=none;startFill=0;endArrow=classic;endFill=1;strokeColor=#000000;fontColor=#050000;entryX=0;entryY=0.5;entryDx=0;entryDy=0;" parent="iMbrbaBTNEFGXNvbshlo-156" target="iMbrbaBTNEFGXNvbshlo-216" edge="1">
          <mxGeometry relative="1" as="geometry">
            <mxPoint x="539" y="-634" as="sourcePoint" />
            <mxPoint x="583" y="-569" as="targetPoint" />
            <Array as="points">
              <mxPoint x="455" y="-569" />
              <mxPoint x="439" y="-576" />
            </Array>
          </mxGeometry>
        </mxCell>
        <mxCell id="YzW6MO2JGgyKq07XsfAy-4" style="edgeStyle=orthogonalEdgeStyle;rounded=0;orthogonalLoop=1;jettySize=auto;html=1;entryX=0.5;entryY=0;entryDx=0;entryDy=0;endArrow=classic;endFill=1;exitX=0.5;exitY=1;exitDx=0;exitDy=0;" parent="iMbrbaBTNEFGXNvbshlo-156" source="iMbrbaBTNEFGXNvbshlo-216" target="iMbrbaBTNEFGXNvbshlo-205" edge="1">
          <mxGeometry relative="1" as="geometry">
            <Array as="points">
              <mxPoint x="648" y="-544" />
            </Array>
          </mxGeometry>
        </mxCell>
        <mxCell id="iMbrbaBTNEFGXNvbshlo-216" value="Wait For Game&lt;br&gt;Slot" style="html=1;strokeWidth=1;align=center;" parent="iMbrbaBTNEFGXNvbshlo-156" vertex="1">
          <mxGeometry x="586" y="-594" width="120" height="50" as="geometry" />
        </mxCell>
        <mxCell id="iMbrbaBTNEFGXNvbshlo-208" value="&lt;b&gt;No&lt;/b&gt;" style="text;html=1;strokeColor=none;fillColor=none;align=center;verticalAlign=middle;whiteSpace=wrap;rounded=0;glass=0;fontColor=#050000;" parent="iMbrbaBTNEFGXNvbshlo-156" vertex="1">
          <mxGeometry x="566" y="-486" width="40" height="20" as="geometry" />
        </mxCell>
        <mxCell id="iMbrbaBTNEFGXNvbshlo-228" value="" style="shape=link;html=1;startArrow=none;startFill=0;endArrow=classic;endFill=1;strokeColor=#000000;fontColor=#050000;width=15.517241379310345;" parent="iMbrbaBTNEFGXNvbshlo-156" edge="1">
          <mxGeometry width="50" height="50" relative="1" as="geometry">
            <mxPoint x="736" y="-635" as="sourcePoint" />
            <mxPoint x="1246" y="-635" as="targetPoint" />
          </mxGeometry>
        </mxCell>
        <mxCell id="iMbrbaBTNEFGXNvbshlo-233" style="edgeStyle=elbowEdgeStyle;rounded=0;orthogonalLoop=1;jettySize=auto;elbow=vertical;html=1;startArrow=none;startFill=0;endArrow=classic;endFill=1;strokeColor=#000000;fontColor=#050000;dashed=1;" parent="iMbrbaBTNEFGXNvbshlo-156" edge="1">
          <mxGeometry relative="1" as="geometry">
            <mxPoint x="752" y="-704" as="targetPoint" />
            <mxPoint x="752" y="-646" as="sourcePoint" />
          </mxGeometry>
        </mxCell>
        <mxCell id="iMbrbaBTNEFGXNvbshlo-231" value="" style="shape=process;whiteSpace=wrap;html=1;backgroundOutline=1;rounded=0;glass=0;strokeColor=#260000;fillColor=#ffffff;fontColor=#050000;align=left;size=0.17543859649122948;" parent="iMbrbaBTNEFGXNvbshlo-156" vertex="1">
          <mxGeometry x="736" y="-774" width="200" height="68" as="geometry" />
        </mxCell>
        <mxCell id="iMbrbaBTNEFGXNvbshlo-234" style="edgeStyle=elbowEdgeStyle;rounded=0;orthogonalLoop=1;jettySize=auto;elbow=vertical;html=1;startArrow=none;startFill=0;endArrow=classic;endFill=1;strokeColor=#000000;fontColor=#050000;dashed=1;exitX=0.902;exitY=1.006;exitDx=0;exitDy=0;exitPerimeter=0;" parent="iMbrbaBTNEFGXNvbshlo-156" source="iMbrbaBTNEFGXNvbshlo-231" target="bdRot_4KN6-E01JKmk0H-1" edge="1">
          <mxGeometry relative="1" as="geometry">
            <mxPoint x="916" y="-639" as="targetPoint" />
            <mxPoint x="926" y="-706" as="sourcePoint" />
            <Array as="points">
              <mxPoint x="916" y="-656" />
              <mxPoint x="936" y="-676" />
              <mxPoint x="931" y="-684" />
              <mxPoint x="931" y="-671" />
            </Array>
          </mxGeometry>
        </mxCell>
        <mxCell id="iMbrbaBTNEFGXNvbshlo-235" value="Send Client The Server and Game Information" style="text;html=1;strokeColor=none;fillColor=none;align=center;verticalAlign=middle;whiteSpace=wrap;rounded=0;glass=0;fontColor=#050000;" parent="iMbrbaBTNEFGXNvbshlo-156" vertex="1">
          <mxGeometry x="756" y="-694" width="130" height="39" as="geometry" />
        </mxCell>
        <mxCell id="iMbrbaBTNEFGXNvbshlo-238" value="Notify Server That Client Has successfully Joined Game" style="text;html=1;strokeColor=none;fillColor=none;align=center;verticalAlign=middle;whiteSpace=wrap;rounded=0;glass=0;fontColor=#050000;" parent="iMbrbaBTNEFGXNvbshlo-156" vertex="1">
          <mxGeometry x="916" y="-706" width="130" height="39" as="geometry" />
        </mxCell>
        <mxCell id="iMbrbaBTNEFGXNvbshlo-239" value="" style="endArrow=classic;html=1;strokeColor=#000000;fontColor=#050000;edgeStyle=orthogonalEdgeStyle;rounded=0;entryX=0;entryY=0.5;entryDx=0;entryDy=0;" parent="iMbrbaBTNEFGXNvbshlo-156" edge="1">
          <mxGeometry width="50" height="50" relative="1" as="geometry">
            <mxPoint x="926" y="-627" as="sourcePoint" />
            <mxPoint x="955" y="-556" as="targetPoint" />
            <Array as="points">
              <mxPoint x="926" y="-556" />
            </Array>
          </mxGeometry>
        </mxCell>
        <mxCell id="iMbrbaBTNEFGXNvbshlo-248" value="" style="group;rounded=0;glass=0;strokeColor=none;fillColor=none;fontColor=#050000;align=left;" parent="iMbrbaBTNEFGXNvbshlo-156" vertex="1" connectable="0">
          <mxGeometry x="986" y="-626" width="180" height="120" as="geometry" />
        </mxCell>
        <mxCell id="iMbrbaBTNEFGXNvbshlo-249" value="" style="rhombus;whiteSpace=wrap;html=1;rounded=0;glass=0;strokeColor=#260000;fillColor=#ffffff;fontColor=#FF0000;align=left;" parent="iMbrbaBTNEFGXNvbshlo-248" vertex="1">
          <mxGeometry x="-30" y="30" width="90" height="80" as="geometry" />
        </mxCell>
        <mxCell id="iMbrbaBTNEFGXNvbshlo-250" value="Have All Players Joined" style="text;html=1;strokeColor=none;fillColor=none;align=center;verticalAlign=middle;whiteSpace=wrap;rounded=0;glass=0;fontColor=#050000;" parent="iMbrbaBTNEFGXNvbshlo-248" vertex="1">
          <mxGeometry x="-16" y="40" width="60" height="60" as="geometry" />
        </mxCell>
        <mxCell id="iMbrbaBTNEFGXNvbshlo-251" style="edgeStyle=elbowEdgeStyle;rounded=0;orthogonalLoop=1;jettySize=auto;elbow=vertical;html=1;exitX=0;exitY=1;exitDx=0;exitDy=0;startArrow=none;startFill=0;endArrow=classic;endFill=1;strokeColor=#330000;fontColor=#050000;horizontal=1;" parent="iMbrbaBTNEFGXNvbshlo-248" source="iMbrbaBTNEFGXNvbshlo-254" edge="1">
          <mxGeometry relative="1" as="geometry">
            <mxPoint x="98" y="70" as="targetPoint" />
            <Array as="points">
              <mxPoint x="68" y="70" />
            </Array>
            <mxPoint x="48" y="70" as="sourcePoint" />
          </mxGeometry>
        </mxCell>
        <mxCell id="iMbrbaBTNEFGXNvbshlo-254" value="&lt;b&gt;Yes&lt;/b&gt;" style="text;html=1;strokeColor=none;fillColor=none;align=center;verticalAlign=middle;whiteSpace=wrap;rounded=0;glass=0;fontColor=#050000;" parent="iMbrbaBTNEFGXNvbshlo-248" vertex="1">
          <mxGeometry x="60" y="50" width="30" height="20" as="geometry" />
        </mxCell>
        <mxCell id="iMbrbaBTNEFGXNvbshlo-257" value="" style="group;rounded=0;glass=0;strokeColor=none;fillColor=none;fontColor=#050000;align=left;" parent="iMbrbaBTNEFGXNvbshlo-156" vertex="1" connectable="0">
          <mxGeometry x="956" y="-496" width="180" height="120" as="geometry" />
        </mxCell>
        <mxCell id="iMbrbaBTNEFGXNvbshlo-258" value="" style="rhombus;whiteSpace=wrap;html=1;rounded=0;glass=0;strokeColor=#260000;fillColor=#ffffff;fontColor=#FF0000;align=left;" parent="iMbrbaBTNEFGXNvbshlo-257" vertex="1">
          <mxGeometry x="-15" y="20" width="120" height="100" as="geometry" />
        </mxCell>
        <mxCell id="iMbrbaBTNEFGXNvbshlo-259" value="Has Wait Duration Timed out" style="text;html=1;strokeColor=none;fillColor=none;align=center;verticalAlign=middle;whiteSpace=wrap;rounded=0;glass=0;fontColor=#050000;" parent="iMbrbaBTNEFGXNvbshlo-257" vertex="1">
          <mxGeometry x="15" y="40" width="60" height="60" as="geometry" />
        </mxCell>
        <mxCell id="iMbrbaBTNEFGXNvbshlo-261" style="edgeStyle=elbowEdgeStyle;rounded=0;orthogonalLoop=1;jettySize=auto;elbow=vertical;html=1;startArrow=none;startFill=0;endArrow=classic;endFill=1;strokeColor=#330000;fontColor=#050000;" parent="iMbrbaBTNEFGXNvbshlo-257" edge="1">
          <mxGeometry relative="1" as="geometry">
            <mxPoint x="45" y="150" as="targetPoint" />
            <Array as="points">
              <mxPoint x="45" y="130" />
            </Array>
            <mxPoint x="45" y="120" as="sourcePoint" />
          </mxGeometry>
        </mxCell>
        <mxCell id="iMbrbaBTNEFGXNvbshlo-252" style="edgeStyle=elbowEdgeStyle;rounded=0;orthogonalLoop=1;jettySize=auto;elbow=vertical;html=1;exitX=0.5;exitY=1;exitDx=0;exitDy=0;startArrow=none;startFill=0;endArrow=classic;endFill=1;strokeColor=#330000;fontColor=#050000;entryX=0.5;entryY=0;entryDx=0;entryDy=0;" parent="iMbrbaBTNEFGXNvbshlo-156" source="iMbrbaBTNEFGXNvbshlo-249" target="iMbrbaBTNEFGXNvbshlo-258" edge="1">
          <mxGeometry relative="1" as="geometry">
            <mxPoint x="991" y="-486" as="targetPoint" />
            <Array as="points" />
          </mxGeometry>
        </mxCell>
        <mxCell id="iMbrbaBTNEFGXNvbshlo-253" value="&lt;b&gt;No&lt;/b&gt;" style="text;html=1;strokeColor=none;fillColor=none;align=center;verticalAlign=middle;whiteSpace=wrap;rounded=0;glass=0;fontColor=#050000;" parent="iMbrbaBTNEFGXNvbshlo-156" vertex="1">
          <mxGeometry x="993" y="-508" width="40" height="20" as="geometry" />
        </mxCell>
        <mxCell id="iMbrbaBTNEFGXNvbshlo-263" value="&lt;b&gt;Yes&lt;/b&gt;" style="text;html=1;strokeColor=none;fillColor=none;align=center;verticalAlign=middle;whiteSpace=wrap;rounded=0;glass=0;fontColor=#050000;" parent="iMbrbaBTNEFGXNvbshlo-156" vertex="1">
          <mxGeometry x="996" y="-376" width="40" height="20" as="geometry" />
        </mxCell>
        <mxCell id="iMbrbaBTNEFGXNvbshlo-267" style="edgeStyle=orthogonalEdgeStyle;rounded=0;orthogonalLoop=1;jettySize=auto;html=1;entryX=0;entryY=0.5;entryDx=0;entryDy=0;startArrow=none;startFill=0;endArrow=classic;endFill=1;strokeColor=#330000;fontColor=#050000;" parent="iMbrbaBTNEFGXNvbshlo-156" source="iMbrbaBTNEFGXNvbshlo-266" target="iMbrbaBTNEFGXNvbshlo-249" edge="1">
          <mxGeometry relative="1" as="geometry">
            <Array as="points">
              <mxPoint x="886" y="-321" />
              <mxPoint x="886" y="-556" />
            </Array>
          </mxGeometry>
        </mxCell>
        <mxCell id="iMbrbaBTNEFGXNvbshlo-266" value="Disconnect Unjoined &lt;br&gt;Clients" style="html=1;strokeWidth=1;align=center;" parent="iMbrbaBTNEFGXNvbshlo-156" vertex="1">
          <mxGeometry x="946" y="-346" width="120" height="50" as="geometry" />
        </mxCell>
        <mxCell id="iMbrbaBTNEFGXNvbshlo-260" style="edgeStyle=elbowEdgeStyle;rounded=0;orthogonalLoop=1;jettySize=auto;elbow=vertical;html=1;exitX=0;exitY=0.5;exitDx=0;exitDy=0;startArrow=none;startFill=0;endArrow=classic;endFill=1;strokeColor=#330000;fontColor=#050000;horizontal=1;entryX=0;entryY=0.5;entryDx=0;entryDy=0;" parent="iMbrbaBTNEFGXNvbshlo-156" source="iMbrbaBTNEFGXNvbshlo-258" target="iMbrbaBTNEFGXNvbshlo-249" edge="1">
          <mxGeometry relative="1" as="geometry">
            <mxPoint x="876" y="-426" as="targetPoint" />
            <Array as="points">
              <mxPoint x="886" y="-476" />
              <mxPoint x="876" y="-516" />
              <mxPoint x="896" y="-496" />
              <mxPoint x="916" y="-421" />
              <mxPoint x="916" y="-416" />
            </Array>
          </mxGeometry>
        </mxCell>
        <mxCell id="iMbrbaBTNEFGXNvbshlo-262" value="&lt;b&gt;No&lt;/b&gt;" style="text;html=1;strokeColor=none;fillColor=none;align=center;verticalAlign=middle;whiteSpace=wrap;rounded=0;glass=0;fontColor=#050000;" parent="iMbrbaBTNEFGXNvbshlo-156" vertex="1">
          <mxGeometry x="891" y="-446" width="40" height="20" as="geometry" />
        </mxCell>
        <mxCell id="bdRot_4KN6-E01JKmk0H-2" value="" style="group;rounded=0;glass=0;strokeColor=none;fillColor=none;fontColor=#050000;align=left;" parent="iMbrbaBTNEFGXNvbshlo-156" vertex="1" connectable="0">
          <mxGeometry x="1114" y="-626" width="180" height="145" as="geometry" />
        </mxCell>
        <mxCell id="bdRot_4KN6-E01JKmk0H-3" value="" style="rhombus;whiteSpace=wrap;html=1;rounded=0;glass=0;strokeColor=#260000;fillColor=#ffffff;fontColor=#FF0000;align=left;" parent="bdRot_4KN6-E01JKmk0H-2" vertex="1">
          <mxGeometry x="-30" y="15" width="110" height="110" as="geometry" />
        </mxCell>
        <mxCell id="bdRot_4KN6-E01JKmk0H-4" value="Is There Still Enogh Players For The Game" style="text;html=1;strokeColor=none;fillColor=none;align=center;verticalAlign=middle;whiteSpace=wrap;rounded=0;glass=0;fontColor=#050000;" parent="bdRot_4KN6-E01JKmk0H-2" vertex="1">
          <mxGeometry x="-5" y="40" width="60" height="60" as="geometry" />
        </mxCell>
        <mxCell id="bdRot_4KN6-E01JKmk0H-6" value="&lt;b&gt;Yes&lt;/b&gt;" style="text;html=1;strokeColor=none;fillColor=none;align=center;verticalAlign=middle;whiteSpace=wrap;rounded=0;glass=0;fontColor=#050000;" parent="bdRot_4KN6-E01JKmk0H-2" vertex="1">
          <mxGeometry x="80" y="50" width="30" height="20" as="geometry" />
        </mxCell>
        <mxCell id="bdRot_4KN6-E01JKmk0H-10" value="&lt;b&gt;No&lt;/b&gt;" style="text;html=1;strokeColor=none;fillColor=none;align=center;verticalAlign=middle;whiteSpace=wrap;rounded=0;glass=0;fontColor=#050000;" parent="bdRot_4KN6-E01JKmk0H-2" vertex="1">
          <mxGeometry x="15" y="125" width="40" height="20" as="geometry" />
        </mxCell>
        <mxCell id="bdRot_4KN6-E01JKmk0H-7" style="edgeStyle=orthogonalEdgeStyle;rounded=0;orthogonalLoop=1;jettySize=auto;html=1;exitX=0.5;exitY=1;exitDx=0;exitDy=0;startArrow=none;startFill=0;endArrow=classic;endFill=1;strokeColor=#330000;fontColor=#050000;entryX=0.458;entryY=0;entryDx=0;entryDy=0;entryPerimeter=0;" parent="iMbrbaBTNEFGXNvbshlo-156" source="bdRot_4KN6-E01JKmk0H-3" target="bdRot_4KN6-E01JKmk0H-8" edge="1">
          <mxGeometry relative="1" as="geometry">
            <mxPoint x="1151" y="-466" as="targetPoint" />
          </mxGeometry>
        </mxCell>
        <mxCell id="bdRot_4KN6-E01JKmk0H-8" value="Abort Game" style="html=1;strokeWidth=1;align=center;" parent="iMbrbaBTNEFGXNvbshlo-156" vertex="1">
          <mxGeometry x="1084" y="-466" width="120" height="50" as="geometry" />
        </mxCell>
        <mxCell id="bdRot_4KN6-E01JKmk0H-19" value="" style="shape=process;whiteSpace=wrap;html=1;backgroundOutline=1;rounded=0;glass=0;strokeColor=#050000;fillColor=#ffffff;fontColor=#050000;align=left;size=0.17543859649122948;" parent="iMbrbaBTNEFGXNvbshlo-156" vertex="1">
          <mxGeometry x="1232" y="-741" width="200" height="34" as="geometry" />
        </mxCell>
        <mxCell id="bdRot_4KN6-E01JKmk0H-20" value="Ready Client" style="text;html=1;strokeColor=none;fillColor=none;align=center;verticalAlign=middle;whiteSpace=wrap;rounded=0;glass=0;fontColor=#050000;" parent="iMbrbaBTNEFGXNvbshlo-156" vertex="1">
          <mxGeometry x="1412" y="-707" width="80" height="39" as="geometry" />
        </mxCell>
        <mxCell id="bdRot_4KN6-E01JKmk0H-21" style="edgeStyle=elbowEdgeStyle;rounded=0;orthogonalLoop=1;jettySize=auto;elbow=vertical;html=1;startArrow=none;startFill=0;endArrow=classic;endFill=1;strokeColor=#000000;fontColor=#050000;dashed=1;exitX=0;exitY=0;exitDx=0;exitDy=0;" parent="iMbrbaBTNEFGXNvbshlo-156" source="bdRot_4KN6-E01JKmk0H-20" edge="1">
          <mxGeometry relative="1" as="geometry">
            <mxPoint x="1412" y="-637" as="targetPoint" />
            <mxPoint x="1412.4" y="-704.2799999999997" as="sourcePoint" />
            <Array as="points">
              <mxPoint x="1412" y="-665" />
              <mxPoint x="1427" y="-683" />
              <mxPoint x="1427" y="-670" />
            </Array>
          </mxGeometry>
        </mxCell>
        <mxCell id="bdRot_4KN6-E01JKmk0H-22" value="Send Client Final Player List" style="text;html=1;strokeColor=none;fillColor=none;align=center;verticalAlign=middle;whiteSpace=wrap;rounded=0;glass=0;fontColor=#050000;" parent="iMbrbaBTNEFGXNvbshlo-156" vertex="1">
          <mxGeometry x="1252" y="-707" width="100" height="39" as="geometry" />
        </mxCell>
        <mxCell id="bdRot_4KN6-E01JKmk0H-23" style="edgeStyle=elbowEdgeStyle;rounded=0;orthogonalLoop=1;jettySize=auto;elbow=vertical;html=1;startArrow=none;startFill=0;endArrow=classic;endFill=1;strokeColor=#050000;fontColor=#050000;dashed=1;exitX=0.988;exitY=0.073;exitDx=0;exitDy=0;exitPerimeter=0;" parent="iMbrbaBTNEFGXNvbshlo-156" edge="1">
          <mxGeometry relative="1" as="geometry">
            <mxPoint x="1246" y="-707" as="targetPoint" />
            <mxPoint x="1245.88" y="-643.54" as="sourcePoint" />
            <Array as="points">
              <mxPoint x="1246" y="-697" />
            </Array>
          </mxGeometry>
        </mxCell>
        <mxCell id="bdRot_4KN6-E01JKmk0H-24" value="Wait For Clients To Ready" style="text;html=1;strokeColor=none;fillColor=none;align=center;verticalAlign=top;whiteSpace=wrap;rounded=0;glass=0;fontColor=#050000;spacing=-3;fontStyle=1" parent="iMbrbaBTNEFGXNvbshlo-156" vertex="1">
          <mxGeometry x="1246" y="-667" width="170" height="20" as="geometry" />
        </mxCell>
        <mxCell id="bdRot_4KN6-E01JKmk0H-5" style="edgeStyle=elbowEdgeStyle;rounded=0;orthogonalLoop=1;jettySize=auto;elbow=vertical;html=1;startArrow=none;startFill=0;endArrow=classic;endFill=1;strokeColor=#030000;fontColor=#050000;horizontal=1;entryX=0.955;entryY=0.8;entryDx=0;entryDy=0;entryPerimeter=0;exitX=0;exitY=1;exitDx=0;exitDy=0;" parent="iMbrbaBTNEFGXNvbshlo-156" source="bdRot_4KN6-E01JKmk0H-6" target="bdRot_4KN6-E01JKmk0H-1" edge="1">
          <mxGeometry relative="1" as="geometry">
            <mxPoint x="1236.0000000000002" y="-628.2399999999998" as="targetPoint" />
            <Array as="points">
              <mxPoint x="1209" y="-556" />
            </Array>
            <mxPoint x="1194" y="-560" as="sourcePoint" />
          </mxGeometry>
        </mxCell>
        <mxCell id="bdRot_4KN6-E01JKmk0H-31" value="Start Game" style="html=1;strokeWidth=1;align=center;" parent="iMbrbaBTNEFGXNvbshlo-156" vertex="1">
          <mxGeometry x="1366" y="-586" width="120" height="50" as="geometry" />
        </mxCell>
        <mxCell id="YzW6MO2JGgyKq07XsfAy-6" style="edgeStyle=orthogonalEdgeStyle;rounded=0;orthogonalLoop=1;jettySize=auto;html=1;entryX=0;entryY=0.5;entryDx=0;entryDy=0;endArrow=classic;endFill=1;exitX=0;exitY=0.5;exitDx=0;exitDy=0;" parent="iMbrbaBTNEFGXNvbshlo-156" source="iMbrbaBTNEFGXNvbshlo-205" target="iMbrbaBTNEFGXNvbshlo-216" edge="1">
          <mxGeometry relative="1" as="geometry" />
        </mxCell>
        <mxCell id="YzW6MO2JGgyKq07XsfAy-7" style="edgeStyle=orthogonalEdgeStyle;rounded=0;orthogonalLoop=1;jettySize=auto;html=1;exitX=1;exitY=0.5;exitDx=0;exitDy=0;entryX=0;entryY=1;entryDx=0;entryDy=0;endArrow=classic;endFill=1;" parent="iMbrbaBTNEFGXNvbshlo-156" source="iMbrbaBTNEFGXNvbshlo-205" target="bdRot_4KN6-E01JKmk0H-1" edge="1">
          <mxGeometry relative="1" as="geometry" />
        </mxCell>
        <mxCell id="iMbrbaBTNEFGXNvbshlo-205" value="" style="rhombus;whiteSpace=wrap;html=1;rounded=0;glass=0;strokeColor=#260000;fillColor=#ffffff;fontColor=#FF0000;align=left;" parent="iMbrbaBTNEFGXNvbshlo-156" vertex="1">
          <mxGeometry x="608" y="-506" width="80" height="80" as="geometry" />
        </mxCell>
        <mxCell id="iMbrbaBTNEFGXNvbshlo-209" value="&lt;b&gt;Yes&lt;/b&gt;" style="text;html=1;strokeColor=none;fillColor=none;align=center;verticalAlign=middle;whiteSpace=wrap;rounded=0;glass=0;fontColor=#050000;" parent="iMbrbaBTNEFGXNvbshlo-156" vertex="1">
          <mxGeometry x="688" y="-487" width="40" height="20" as="geometry" />
        </mxCell>
        <mxCell id="YzW6MO2JGgyKq07XsfAy-9" value="Enough Players To Start" style="text;html=1;strokeColor=none;fillColor=none;align=center;verticalAlign=middle;whiteSpace=wrap;rounded=0;glass=0;fontColor=#050000;" parent="iMbrbaBTNEFGXNvbshlo-156" vertex="1">
          <mxGeometry x="618" y="-496" width="60" height="60" as="geometry" />
        </mxCell>
        <mxCell id="YzW6MO2JGgyKq07XsfAy-11" style="edgeStyle=orthogonalEdgeStyle;rounded=0;orthogonalLoop=1;jettySize=auto;html=1;exitX=1;exitY=0.5;exitDx=0;exitDy=0;entryX=0;entryY=0.5;entryDx=0;entryDy=0;endArrow=none;endFill=0;" parent="iMbrbaBTNEFGXNvbshlo-156" source="iMbrbaBTNEFGXNvbshlo-46" target="iMbrbaBTNEFGXNvbshlo-189" edge="1">
          <mxGeometry relative="1" as="geometry" />
        </mxCell>
        <mxCell id="M63y9VsfOIZPacP70S8h-5" value="Server Address/Port" style="text;html=1;strokeColor=none;fillColor=none;align=center;verticalAlign=middle;whiteSpace=wrap;rounded=0;" parent="iMbrbaBTNEFGXNvbshlo-156" vertex="1">
          <mxGeometry x="772" y="-774" width="128" height="20" as="geometry" />
        </mxCell>
        <mxCell id="M63y9VsfOIZPacP70S8h-9" value="Level Name" style="text;html=1;strokeColor=none;fillColor=none;align=center;verticalAlign=middle;whiteSpace=wrap;rounded=0;" parent="iMbrbaBTNEFGXNvbshlo-156" vertex="1">
          <mxGeometry x="772" y="-758" width="128" height="20" as="geometry" />
        </mxCell>
        <mxCell id="M63y9VsfOIZPacP70S8h-10" value="Game Name" style="text;html=1;strokeColor=none;fillColor=none;align=center;verticalAlign=middle;whiteSpace=wrap;rounded=0;" parent="iMbrbaBTNEFGXNvbshlo-156" vertex="1">
          <mxGeometry x="772" y="-742" width="128" height="20" as="geometry" />
        </mxCell>
        <mxCell id="M63y9VsfOIZPacP70S8h-12" value="Player ID" style="text;html=1;strokeColor=none;fillColor=none;align=center;verticalAlign=middle;whiteSpace=wrap;rounded=0;" parent="iMbrbaBTNEFGXNvbshlo-156" vertex="1">
          <mxGeometry x="772" y="-727" width="128" height="20" as="geometry" />
        </mxCell>
        <mxCell id="M63y9VsfOIZPacP70S8h-14" value="Player List" style="text;html=1;strokeColor=none;fillColor=none;align=center;verticalAlign=middle;whiteSpace=wrap;rounded=0;" parent="iMbrbaBTNEFGXNvbshlo-156" vertex="1">
          <mxGeometry x="1268" y="-742" width="128" height="20" as="geometry" />
        </mxCell>
        <mxCell id="M63y9VsfOIZPacP70S8h-15" value="Player IDs" style="text;html=1;strokeColor=none;fillColor=none;align=center;verticalAlign=middle;whiteSpace=wrap;rounded=0;" parent="iMbrbaBTNEFGXNvbshlo-156" vertex="1">
          <mxGeometry x="1268" y="-726" width="128" height="20" as="geometry" />
        </mxCell>
        <mxCell id="M63y9VsfOIZPacP70S8h-20" value="" style="group" parent="iMbrbaBTNEFGXNvbshlo-156" vertex="1" connectable="0">
          <mxGeometry x="950" y="90" width="852" height="260" as="geometry" />
        </mxCell>
        <mxCell id="iMbrbaBTNEFGXNvbshlo-159" value="" style="rounded=0;whiteSpace=wrap;html=1;glass=0;strokeColor=#260000;fillColor=#E8E8E8;fontColor=#FF0000;align=left;" parent="M63y9VsfOIZPacP70S8h-20" vertex="1">
          <mxGeometry width="852" height="260" as="geometry" />
        </mxCell>
        <mxCell id="Gk83BuQbbGuSDowAynj9-10" value="" style="shape=link;html=1;startArrow=none;startFill=0;endArrow=classic;endFill=1;strokeColor=#000000;fontColor=#050000;width=15.517241379310345;entryX=0.984;entryY=0.45;entryDx=0;entryDy=0;entryPerimeter=0;" parent="iMbrbaBTNEFGXNvbshlo-156" target="Gk83BuQbbGuSDowAynj9-21" edge="1">
          <mxGeometry width="50" height="50" relative="1" as="geometry">
            <mxPoint x="294" y="-634" as="sourcePoint" />
            <mxPoint x="553" y="-634" as="targetPoint" />
          </mxGeometry>
        </mxCell>
        <mxCell id="Gk83BuQbbGuSDowAynj9-12" value="" style="shape=process;whiteSpace=wrap;html=1;backgroundOutline=1;rounded=0;glass=0;strokeColor=#000000;fillColor=#ffffff;fontColor=#050000;align=left;size=0.17543859649122948;" parent="iMbrbaBTNEFGXNvbshlo-156" vertex="1">
          <mxGeometry x="338" y="-755" width="200" height="38" as="geometry" />
        </mxCell>
        <mxCell id="Gk83BuQbbGuSDowAynj9-13" style="edgeStyle=elbowEdgeStyle;rounded=0;orthogonalLoop=1;jettySize=auto;elbow=vertical;html=1;startArrow=none;startFill=0;endArrow=classic;endFill=1;strokeColor=#000000;fontColor=#050000;dashed=1;entryX=0.079;entryY=0.989;entryDx=0;entryDy=0;entryPerimeter=0;" parent="iMbrbaBTNEFGXNvbshlo-156" target="Gk83BuQbbGuSDowAynj9-12" edge="1">
          <mxGeometry relative="1" as="geometry">
            <mxPoint x="353.0000000000002" y="-701" as="targetPoint" />
            <mxPoint x="353.0000000000002" y="-643" as="sourcePoint" />
          </mxGeometry>
        </mxCell>
        <mxCell id="Gk83BuQbbGuSDowAynj9-15" value="Send Client The Server and Lobby Information" style="text;html=1;strokeColor=none;fillColor=none;align=center;verticalAlign=middle;whiteSpace=wrap;rounded=0;glass=0;fontColor=#050000;" parent="iMbrbaBTNEFGXNvbshlo-156" vertex="1">
          <mxGeometry x="355" y="-698" width="130" height="39" as="geometry" />
        </mxCell>
        <mxCell id="Gk83BuQbbGuSDowAynj9-16" value="Notify Server That Client Has Joined Successfully" style="text;html=1;strokeColor=none;fillColor=none;align=center;verticalAlign=middle;whiteSpace=wrap;rounded=0;glass=0;fontColor=#050000;" parent="iMbrbaBTNEFGXNvbshlo-156" vertex="1">
          <mxGeometry x="509" y="-704" width="130" height="45" as="geometry" />
        </mxCell>
        <mxCell id="Gk83BuQbbGuSDowAynj9-18" style="edgeStyle=orthogonalEdgeStyle;rounded=0;orthogonalLoop=1;jettySize=auto;html=1;exitX=0.75;exitY=1;exitDx=0;exitDy=0;strokeColor=#000000;" parent="iMbrbaBTNEFGXNvbshlo-156" edge="1">
          <mxGeometry relative="1" as="geometry">
            <mxPoint x="303.9320388349514" y="-641.6601941747574" as="targetPoint" />
            <mxPoint x="297" y="-664" as="sourcePoint" />
          </mxGeometry>
        </mxCell>
        <mxCell id="Gk83BuQbbGuSDowAynj9-19" value="Server Address/Port" style="text;html=1;strokeColor=none;fillColor=none;align=center;verticalAlign=middle;whiteSpace=wrap;rounded=0;" parent="iMbrbaBTNEFGXNvbshlo-156" vertex="1">
          <mxGeometry x="372" y="-755" width="128" height="20" as="geometry" />
        </mxCell>
        <mxCell id="Gk83BuQbbGuSDowAynj9-20" value="Current Clients" style="text;html=1;strokeColor=none;fillColor=none;align=center;verticalAlign=middle;whiteSpace=wrap;rounded=0;" parent="iMbrbaBTNEFGXNvbshlo-156" vertex="1">
          <mxGeometry x="372" y="-740" width="128" height="20" as="geometry" />
        </mxCell>
        <mxCell id="Gk83BuQbbGuSDowAynj9-175" value="" style="rounded=1;whiteSpace=wrap;html=1;shadow=1;glass=1;comic=0;strokeColor=#E8E8E8;fillColor=#ffffff;fontSize=16;align=center;fontColor=#ffffff;arcSize=25;perimeterSpacing=21;strokeWidth=11;" parent="iMbrbaBTNEFGXNvbshlo-156" vertex="1">
          <mxGeometry x="528" y="-1278" width="574" height="211" as="geometry" />
        </mxCell>
        <mxCell id="lvlrIC90hp7Pnw_aHybE-3" value="" style="shape=crossbar;whiteSpace=wrap;html=1;rounded=1;direction=south;" parent="iMbrbaBTNEFGXNvbshlo-156" vertex="1">
          <mxGeometry x="20" y="-1077" width="20" height="300" as="geometry" />
        </mxCell>
        <mxCell id="lvlrIC90hp7Pnw_aHybE-6" value="&lt;br&gt;" style="shape=crossbar;whiteSpace=wrap;html=1;rounded=1;direction=south;" parent="iMbrbaBTNEFGXNvbshlo-156" vertex="1">
          <mxGeometry x="426" y="-1077" width="20" height="300" as="geometry" />
        </mxCell>
        <mxCell id="lvlrIC90hp7Pnw_aHybE-7" value="&lt;br&gt;" style="shape=crossbar;whiteSpace=wrap;html=1;rounded=1;direction=south;" parent="iMbrbaBTNEFGXNvbshlo-156" vertex="1">
          <mxGeometry x="1180" y="-1077" width="20" height="300" as="geometry" />
        </mxCell>
        <mxCell id="lvlrIC90hp7Pnw_aHybE-8" value="&lt;br&gt;" style="shape=crossbar;whiteSpace=wrap;html=1;rounded=1;direction=south;" parent="iMbrbaBTNEFGXNvbshlo-156" vertex="1">
          <mxGeometry x="1590" y="-1077" width="20" height="300" as="geometry" />
        </mxCell>
        <mxCell id="rIMi778sxpXRHhcPjh1L-1" value="When creating an online multiplayer game one main issues is&#xa;scaling and managing system resources to ensure that our users have a smooth&#xa;gaming experience. This can be achieved by containerizing each game instance in&#xa;docker containers and use Kubernetes to scale the game instances dynamically." style="text;html=1;" vertex="1" parent="iMbrbaBTNEFGXNvbshlo-156">
          <mxGeometry x="960" y="510" width="460" height="70" as="geometry" />
        </mxCell>
        <mxCell id="rIMi778sxpXRHhcPjh1L-3" value="&lt;font style=&quot;font-size: 20px&quot;&gt;When creating an online multiplayer game one main issues is&lt;br&gt;scaling and managing system resources to ensure that our users have a smooth&lt;br&gt;gaming experience. This can be achieved by containerizing each game instance in&lt;br&gt;docker containers and use Kubernetes to scale the game instances dynamically.&lt;/font&gt;" style="text;html=1;align=center;fontStyle=0" vertex="1" parent="iMbrbaBTNEFGXNvbshlo-156">
          <mxGeometry x="438" y="-1052" width="750" height="110" as="geometry" />
        </mxCell>
        <mxCell id="rIMi778sxpXRHhcPjh1L-4" value="&lt;font style=&quot;font-size: 20px&quot;&gt;For the case that we run out of resources&amp;nbsp;or the max concurrent active game limit is reached, lobbies are put into a queue to wait for a game slot to become available.&lt;br&gt;This helps to insure that all of our users have a smooth gaming experience!&lt;/font&gt;" style="text;html=1;align=center;whiteSpace=wrap;" vertex="1" parent="iMbrbaBTNEFGXNvbshlo-156">
          <mxGeometry x="446" y="-899" width="734" height="100" as="geometry" />
        </mxCell>
        <mxCell id="rIMi778sxpXRHhcPjh1L-5" value="" style="shape=crossbar;whiteSpace=wrap;html=1;rounded=1;align=center;" vertex="1" parent="iMbrbaBTNEFGXNvbshlo-156">
          <mxGeometry x="450" y="-951" width="720" height="20" as="geometry" />
        </mxCell>
        <mxCell id="BmKUf66JoiR6lxN3HfAb-2" value="Mine" parent="0" />
        <mxCell id="BmKUf66JoiR6lxN3HfAb-29" value="&lt;span&gt;&lt;b&gt;Client&lt;/b&gt;&lt;/span&gt;" style="shape=umlActor;verticalLabelPosition=bottom;labelBackgroundColor=#ffffff;verticalAlign=top;html=1;outlineConnect=0;strokeWidth=3;align=center;fontStyle=0" parent="BmKUf66JoiR6lxN3HfAb-2" vertex="1">
          <mxGeometry x="583" y="-1370" width="35" height="60" as="geometry" />
        </mxCell>
        <mxCell id="BmKUf66JoiR6lxN3HfAb-31" value="&lt;span&gt;&lt;b&gt;Client&lt;/b&gt;&lt;/span&gt;" style="shape=umlActor;verticalLabelPosition=bottom;labelBackgroundColor=#ffffff;verticalAlign=top;html=1;outlineConnect=0;strokeWidth=3;align=center;fontStyle=0" parent="BmKUf66JoiR6lxN3HfAb-2" vertex="1">
          <mxGeometry x="680" y="-1430" width="35" height="60" as="geometry" />
        </mxCell>
        <mxCell id="BmKUf66JoiR6lxN3HfAb-32" value="&lt;span&gt;&lt;b&gt;Client&lt;/b&gt;&lt;/span&gt;" style="shape=umlActor;verticalLabelPosition=bottom;labelBackgroundColor=#ffffff;verticalAlign=top;html=1;outlineConnect=0;strokeWidth=3;align=center;fontStyle=0" parent="BmKUf66JoiR6lxN3HfAb-2" vertex="1">
          <mxGeometry x="520" y="-1410" width="35" height="60" as="geometry" />
        </mxCell>
        <mxCell id="BmKUf66JoiR6lxN3HfAb-34" value="Module" style="shape=module;align=left;spacingLeft=20;align=center;verticalAlign=top;strokeWidth=1;html=1;" parent="BmKUf66JoiR6lxN3HfAb-2" vertex="1">
          <mxGeometry x="858" y="-1355" width="100" height="50" as="geometry" />
        </mxCell>
        <mxCell id="BmKUf66JoiR6lxN3HfAb-39" style="edgeStyle=orthogonalEdgeStyle;rounded=0;orthogonalLoop=1;jettySize=auto;html=1;endArrow=none;endFill=0;" parent="BmKUf66JoiR6lxN3HfAb-2" source="BmKUf66JoiR6lxN3HfAb-38" edge="1">
          <mxGeometry relative="1" as="geometry">
            <mxPoint x="293" y="-634" as="targetPoint" />
          </mxGeometry>
        </mxCell>
        <mxCell id="BmKUf66JoiR6lxN3HfAb-38" value="&lt;span&gt;&lt;b&gt;Client&lt;/b&gt;&lt;/span&gt;" style="shape=umlActor;verticalLabelPosition=bottom;labelBackgroundColor=#ffffff;verticalAlign=top;html=1;outlineConnect=0;strokeWidth=3;align=center;fontStyle=0" parent="BmKUf66JoiR6lxN3HfAb-2" vertex="1">
          <mxGeometry x="33" y="-664" width="35" height="60" as="geometry" />
        </mxCell>
        <mxCell id="BmKUf66JoiR6lxN3HfAb-40" value="" style="endArrow=classic;html=1;entryX=0.5;entryY=0;entryDx=0;entryDy=0;" parent="BmKUf66JoiR6lxN3HfAb-2" target="BmKUf66JoiR6lxN3HfAb-44" edge="1">
          <mxGeometry width="50" height="50" relative="1" as="geometry">
            <mxPoint x="133" y="-634" as="sourcePoint" />
            <mxPoint x="133" y="-574" as="targetPoint" />
          </mxGeometry>
        </mxCell>
        <mxCell id="BmKUf66JoiR6lxN3HfAb-48" style="edgeStyle=orthogonalEdgeStyle;rounded=0;orthogonalLoop=1;jettySize=auto;html=1;exitX=0.5;exitY=1;exitDx=0;exitDy=0;entryX=0.5;entryY=0;entryDx=0;entryDy=0;endArrow=classic;endFill=1;" parent="BmKUf66JoiR6lxN3HfAb-2" source="BmKUf66JoiR6lxN3HfAb-44" target="BmKUf66JoiR6lxN3HfAb-47" edge="1">
          <mxGeometry relative="1" as="geometry" />
        </mxCell>
        <mxCell id="BmKUf66JoiR6lxN3HfAb-44" value="Connect to Server" style="html=1;strokeWidth=1;align=center;" parent="BmKUf66JoiR6lxN3HfAb-2" vertex="1">
          <mxGeometry x="78" y="-614" width="110" height="50" as="geometry" />
        </mxCell>
        <mxCell id="BmKUf66JoiR6lxN3HfAb-54" style="edgeStyle=orthogonalEdgeStyle;rounded=0;orthogonalLoop=1;jettySize=auto;html=1;exitX=0;exitY=0.5;exitDx=0;exitDy=0;endArrow=none;endFill=0;dashed=1;entryX=0;entryY=0.5;entryDx=0;entryDy=0;" parent="BmKUf66JoiR6lxN3HfAb-2" target="Gk83BuQbbGuSDowAynj9-123" edge="1">
          <mxGeometry relative="1" as="geometry">
            <mxPoint x="250" y="-177" as="targetPoint" />
            <mxPoint x="77" y="-537" as="sourcePoint" />
            <Array as="points">
              <mxPoint x="50" y="-537" />
              <mxPoint x="50" y="-177" />
            </Array>
          </mxGeometry>
        </mxCell>
        <mxCell id="BmKUf66JoiR6lxN3HfAb-47" value="Register Users&amp;nbsp;" style="html=1;strokeWidth=1;align=center;" parent="BmKUf66JoiR6lxN3HfAb-2" vertex="1">
          <mxGeometry x="78" y="-544" width="110" height="50" as="geometry" />
        </mxCell>
        <mxCell id="BmKUf66JoiR6lxN3HfAb-59" value="&lt;span style=&quot;white-space: normal&quot;&gt;&lt;b&gt;Server MySQL Database&lt;/b&gt;&lt;/span&gt;" style="html=1;strokeWidth=1;align=center;whiteSpace=wrap;" parent="BmKUf66JoiR6lxN3HfAb-2" vertex="1">
          <mxGeometry x="950" y="40" width="852" height="50" as="geometry" />
        </mxCell>
        <mxCell id="iMbrbaBTNEFGXNvbshlo-37" value="" style="group" parent="BmKUf66JoiR6lxN3HfAb-2" vertex="1" connectable="0">
          <mxGeometry x="975" y="90" width="210" height="90" as="geometry" />
        </mxCell>
        <mxCell id="BmKUf66JoiR6lxN3HfAb-49" value="" style="shape=internalStorage;whiteSpace=wrap;html=1;backgroundOutline=1;strokeWidth=1;align=center;dx=69;dy=19;" parent="iMbrbaBTNEFGXNvbshlo-37" vertex="1">
          <mxGeometry width="210" height="90" as="geometry" />
        </mxCell>
        <mxCell id="BmKUf66JoiR6lxN3HfAb-51" value="Active Users" style="text;html=1;strokeColor=none;fillColor=none;align=center;verticalAlign=middle;whiteSpace=wrap;rounded=0;" parent="iMbrbaBTNEFGXNvbshlo-37" vertex="1">
          <mxGeometry x="56.54000000000002" width="153.46" height="20" as="geometry" />
        </mxCell>
        <mxCell id="iMbrbaBTNEFGXNvbshlo-6" value="" style="group" parent="iMbrbaBTNEFGXNvbshlo-37" vertex="1" connectable="0">
          <mxGeometry y="20.333333333333314" width="210" height="13.333333333333332" as="geometry" />
        </mxCell>
        <mxCell id="iMbrbaBTNEFGXNvbshlo-4" value="INT" style="text;html=1;strokeColor=none;fillColor=none;align=left;verticalAlign=middle;whiteSpace=wrap;rounded=0;glass=0;spacingLeft=3;" parent="iMbrbaBTNEFGXNvbshlo-6" vertex="1">
          <mxGeometry width="70" height="13.333333333333332" as="geometry" />
        </mxCell>
        <mxCell id="iMbrbaBTNEFGXNvbshlo-5" value="Unique ID" style="text;html=1;strokeColor=none;fillColor=none;align=left;verticalAlign=middle;whiteSpace=wrap;rounded=0;glass=0;" parent="iMbrbaBTNEFGXNvbshlo-6" vertex="1">
          <mxGeometry x="80" width="130" height="13.333333333333332" as="geometry" />
        </mxCell>
        <mxCell id="iMbrbaBTNEFGXNvbshlo-10" value="" style="group" parent="iMbrbaBTNEFGXNvbshlo-37" vertex="1" connectable="0">
          <mxGeometry y="47" width="210" height="13.333333333333332" as="geometry" />
        </mxCell>
        <mxCell id="iMbrbaBTNEFGXNvbshlo-11" value="VARCHAR" style="text;html=1;strokeColor=none;fillColor=none;align=left;verticalAlign=middle;whiteSpace=wrap;rounded=0;glass=0;spacingLeft=3;" parent="iMbrbaBTNEFGXNvbshlo-10" vertex="1">
          <mxGeometry width="70" height="13.333333333333332" as="geometry" />
        </mxCell>
        <mxCell id="iMbrbaBTNEFGXNvbshlo-12" value="Client Nickname" style="text;html=1;strokeColor=none;fillColor=none;align=left;verticalAlign=middle;whiteSpace=wrap;rounded=0;glass=0;" parent="iMbrbaBTNEFGXNvbshlo-10" vertex="1">
          <mxGeometry x="80" width="130" height="13.333333333333332" as="geometry" />
        </mxCell>
        <mxCell id="iMbrbaBTNEFGXNvbshlo-13" value="" style="group" parent="iMbrbaBTNEFGXNvbshlo-37" vertex="1" connectable="0">
          <mxGeometry y="60.333333333333314" width="210" height="13.333333333333332" as="geometry" />
        </mxCell>
        <mxCell id="iMbrbaBTNEFGXNvbshlo-14" value="INT" style="text;html=1;strokeColor=none;fillColor=none;align=left;verticalAlign=middle;whiteSpace=wrap;rounded=0;glass=0;spacingLeft=3;" parent="iMbrbaBTNEFGXNvbshlo-13" vertex="1">
          <mxGeometry width="70" height="13.333333333333332" as="geometry" />
        </mxCell>
        <mxCell id="iMbrbaBTNEFGXNvbshlo-15" value="Active Lobby ID" style="text;html=1;strokeColor=none;fillColor=none;align=left;verticalAlign=middle;whiteSpace=wrap;rounded=0;glass=0;" parent="iMbrbaBTNEFGXNvbshlo-13" vertex="1">
          <mxGeometry x="80" width="130" height="13.333333333333332" as="geometry" />
        </mxCell>
        <mxCell id="iMbrbaBTNEFGXNvbshlo-16" value="" style="group" parent="iMbrbaBTNEFGXNvbshlo-37" vertex="1" connectable="0">
          <mxGeometry y="73.66666666666669" width="210" height="13.333333333333332" as="geometry" />
        </mxCell>
        <mxCell id="iMbrbaBTNEFGXNvbshlo-17" value="INT" style="text;html=1;strokeColor=none;fillColor=none;align=left;verticalAlign=middle;whiteSpace=wrap;rounded=0;glass=0;spacingLeft=3;" parent="iMbrbaBTNEFGXNvbshlo-16" vertex="1">
          <mxGeometry width="70" height="13.333333333333332" as="geometry" />
        </mxCell>
        <mxCell id="iMbrbaBTNEFGXNvbshlo-18" value="&lt;span style=&quot;background-color: rgb(153 , 153 , 153)&quot;&gt;Active Game ID&lt;/span&gt;" style="text;html=1;strokeColor=none;fillColor=none;align=left;verticalAlign=middle;whiteSpace=wrap;rounded=0;glass=0;" parent="iMbrbaBTNEFGXNvbshlo-16" vertex="1">
          <mxGeometry x="80" width="130" height="13.333333333333332" as="geometry" />
        </mxCell>
        <mxCell id="iMbrbaBTNEFGXNvbshlo-7" value="" style="group" parent="iMbrbaBTNEFGXNvbshlo-37" vertex="1" connectable="0">
          <mxGeometry y="33.666666666666686" width="210" height="13.333333333333332" as="geometry" />
        </mxCell>
        <mxCell id="iMbrbaBTNEFGXNvbshlo-8" value="VARCHAR" style="text;html=1;strokeColor=none;fillColor=none;align=left;verticalAlign=middle;whiteSpace=wrap;rounded=0;glass=0;spacingLeft=3;" parent="iMbrbaBTNEFGXNvbshlo-7" vertex="1">
          <mxGeometry width="70" height="13.333333333333332" as="geometry" />
        </mxCell>
        <mxCell id="iMbrbaBTNEFGXNvbshlo-9" value="&lt;span style=&quot;background-color: rgb(153 , 153 , 153)&quot;&gt;Unique Client ID&lt;/span&gt;" style="text;html=1;strokeColor=none;fillColor=none;align=left;verticalAlign=middle;whiteSpace=wrap;rounded=0;glass=0;" parent="iMbrbaBTNEFGXNvbshlo-7" vertex="1">
          <mxGeometry x="80" width="130" height="13.333333333333332" as="geometry" />
        </mxCell>
        <mxCell id="iMbrbaBTNEFGXNvbshlo-38" value="" style="group" parent="BmKUf66JoiR6lxN3HfAb-2" vertex="1" connectable="0">
          <mxGeometry x="1285" y="223" width="210" height="93.33666666666664" as="geometry" />
        </mxCell>
        <mxCell id="iMbrbaBTNEFGXNvbshlo-39" value="" style="shape=internalStorage;whiteSpace=wrap;html=1;backgroundOutline=1;strokeWidth=1;align=center;dx=69;dy=19;" parent="iMbrbaBTNEFGXNvbshlo-38" vertex="1">
          <mxGeometry width="210" height="90" as="geometry" />
        </mxCell>
        <mxCell id="iMbrbaBTNEFGXNvbshlo-40" value="Active Games" style="text;html=1;strokeColor=none;fillColor=none;align=center;verticalAlign=middle;whiteSpace=wrap;rounded=0;" parent="iMbrbaBTNEFGXNvbshlo-38" vertex="1">
          <mxGeometry x="56.54000000000002" width="153.46" height="20" as="geometry" />
        </mxCell>
        <mxCell id="iMbrbaBTNEFGXNvbshlo-41" value="" style="group" parent="iMbrbaBTNEFGXNvbshlo-38" vertex="1" connectable="0">
          <mxGeometry y="20.333333333333314" width="210" height="13.333333333333332" as="geometry" />
        </mxCell>
        <mxCell id="iMbrbaBTNEFGXNvbshlo-42" value="INT" style="text;html=1;strokeColor=none;fillColor=none;align=left;verticalAlign=middle;whiteSpace=wrap;rounded=0;glass=0;spacingLeft=3;" parent="iMbrbaBTNEFGXNvbshlo-41" vertex="1">
          <mxGeometry width="70" height="13.333333333333332" as="geometry" />
        </mxCell>
        <mxCell id="iMbrbaBTNEFGXNvbshlo-43" value="Unique ID" style="text;html=1;strokeColor=none;fillColor=none;align=left;verticalAlign=middle;whiteSpace=wrap;rounded=0;glass=0;" parent="iMbrbaBTNEFGXNvbshlo-41" vertex="1">
          <mxGeometry x="80" width="130" height="13.333333333333332" as="geometry" />
        </mxCell>
        <mxCell id="iMbrbaBTNEFGXNvbshlo-44" value="" style="group" parent="iMbrbaBTNEFGXNvbshlo-38" vertex="1" connectable="0">
          <mxGeometry y="47" width="210" height="13.333333333333332" as="geometry" />
        </mxCell>
        <mxCell id="iMbrbaBTNEFGXNvbshlo-45" value="VARCHAR" style="text;html=1;strokeColor=none;fillColor=none;align=left;verticalAlign=middle;whiteSpace=wrap;rounded=0;glass=0;spacingLeft=3;" parent="iMbrbaBTNEFGXNvbshlo-44" vertex="1">
          <mxGeometry width="70" height="13.333333333333332" as="geometry" />
        </mxCell>
        <mxCell id="iMbrbaBTNEFGXNvbshlo-46" value="&lt;span style=&quot;background-color: rgb(255 , 255 , 255)&quot;&gt;IP&lt;/span&gt;" style="text;html=1;strokeColor=none;fillColor=none;align=left;verticalAlign=middle;whiteSpace=wrap;rounded=0;glass=0;" parent="iMbrbaBTNEFGXNvbshlo-44" vertex="1">
          <mxGeometry x="80" width="130" height="13.333333333333332" as="geometry" />
        </mxCell>
        <mxCell id="iMbrbaBTNEFGXNvbshlo-47" value="" style="group" parent="iMbrbaBTNEFGXNvbshlo-38" vertex="1" connectable="0">
          <mxGeometry y="60.333333333333314" width="210" height="13.333333333333332" as="geometry" />
        </mxCell>
        <mxCell id="iMbrbaBTNEFGXNvbshlo-48" value="INT" style="text;html=1;strokeColor=none;fillColor=none;align=left;verticalAlign=middle;whiteSpace=wrap;rounded=0;glass=0;spacingLeft=3;" parent="iMbrbaBTNEFGXNvbshlo-47" vertex="1">
          <mxGeometry width="70" height="13.333333333333332" as="geometry" />
        </mxCell>
        <mxCell id="iMbrbaBTNEFGXNvbshlo-49" value="&lt;span style=&quot;background-color: rgb(255 , 255 , 255)&quot;&gt;Port&lt;/span&gt;" style="text;html=1;strokeColor=none;fillColor=none;align=left;verticalAlign=middle;whiteSpace=wrap;rounded=0;glass=0;" parent="iMbrbaBTNEFGXNvbshlo-47" vertex="1">
          <mxGeometry x="80" width="130" height="13.333333333333332" as="geometry" />
        </mxCell>
        <mxCell id="iMbrbaBTNEFGXNvbshlo-53" value="" style="group" parent="iMbrbaBTNEFGXNvbshlo-38" vertex="1" connectable="0">
          <mxGeometry y="33.666666666666686" width="210" height="13.333333333333332" as="geometry" />
        </mxCell>
        <mxCell id="iMbrbaBTNEFGXNvbshlo-54" value="BOOL" style="text;html=1;strokeColor=none;fillColor=none;align=left;verticalAlign=middle;whiteSpace=wrap;rounded=0;glass=0;spacingLeft=3;" parent="iMbrbaBTNEFGXNvbshlo-53" vertex="1">
          <mxGeometry width="70" height="13.333333333333332" as="geometry" />
        </mxCell>
        <mxCell id="iMbrbaBTNEFGXNvbshlo-55" value="Available" style="text;html=1;strokeColor=none;fillColor=none;align=left;verticalAlign=middle;whiteSpace=wrap;rounded=0;glass=0;" parent="iMbrbaBTNEFGXNvbshlo-53" vertex="1">
          <mxGeometry x="80" width="130" height="13.333333333333332" as="geometry" />
        </mxCell>
        <mxCell id="iMbrbaBTNEFGXNvbshlo-72" value="" style="group" parent="iMbrbaBTNEFGXNvbshlo-38" vertex="1" connectable="0">
          <mxGeometry y="74.00333333333332" width="210" height="13.333333333333332" as="geometry" />
        </mxCell>
        <mxCell id="iMbrbaBTNEFGXNvbshlo-73" value="INT" style="text;html=1;strokeColor=none;fillColor=none;align=left;verticalAlign=middle;whiteSpace=wrap;rounded=0;glass=0;spacingLeft=3;" parent="iMbrbaBTNEFGXNvbshlo-72" vertex="1">
          <mxGeometry width="70" height="13.333333333333332" as="geometry" />
        </mxCell>
        <mxCell id="iMbrbaBTNEFGXNvbshlo-74" value="&lt;span style=&quot;background-color: rgb(153 , 153 , 153)&quot;&gt;Active Lobby ID&lt;/span&gt;" style="text;html=1;strokeColor=none;fillColor=none;align=left;verticalAlign=middle;whiteSpace=wrap;rounded=0;glass=0;" parent="iMbrbaBTNEFGXNvbshlo-72" vertex="1">
          <mxGeometry x="80" width="130" height="13.333333333333332" as="geometry" />
        </mxCell>
        <mxCell id="iMbrbaBTNEFGXNvbshlo-94" value="Send Available &lt;br&gt;Lobby Data" style="html=1;strokeWidth=1;align=center;" parent="BmKUf66JoiR6lxN3HfAb-2" vertex="1">
          <mxGeometry x="211" y="-437" width="110" height="50" as="geometry" />
        </mxCell>
        <mxCell id="YzW6MO2JGgyKq07XsfAy-12" value="" style="group" parent="BmKUf66JoiR6lxN3HfAb-2" vertex="1" connectable="0">
          <mxGeometry x="1570" y="161" width="210" height="77" as="geometry" />
        </mxCell>
        <mxCell id="iMbrbaBTNEFGXNvbshlo-186" value="" style="shape=internalStorage;whiteSpace=wrap;html=1;backgroundOutline=1;strokeWidth=1;align=center;dx=69;dy=19;" parent="YzW6MO2JGgyKq07XsfAy-12" vertex="1">
          <mxGeometry width="210" height="77" as="geometry" />
        </mxCell>
        <mxCell id="iMbrbaBTNEFGXNvbshlo-187" value="Levels" style="text;html=1;strokeColor=none;fillColor=none;align=center;verticalAlign=middle;whiteSpace=wrap;rounded=0;" parent="YzW6MO2JGgyKq07XsfAy-12" vertex="1">
          <mxGeometry x="56.539999999999964" width="153.46" height="20" as="geometry" />
        </mxCell>
        <mxCell id="iMbrbaBTNEFGXNvbshlo-188" value="" style="group" parent="YzW6MO2JGgyKq07XsfAy-12" vertex="1" connectable="0">
          <mxGeometry y="20.333333333333314" width="210" height="13.333333333333332" as="geometry" />
        </mxCell>
        <mxCell id="iMbrbaBTNEFGXNvbshlo-189" value="INT" style="text;html=1;strokeColor=none;fillColor=none;align=left;verticalAlign=middle;whiteSpace=wrap;rounded=0;glass=0;spacingLeft=3;" parent="iMbrbaBTNEFGXNvbshlo-188" vertex="1">
          <mxGeometry width="70" height="13.333333333333332" as="geometry" />
        </mxCell>
        <mxCell id="iMbrbaBTNEFGXNvbshlo-190" value="Unique ID" style="text;html=1;strokeColor=none;fillColor=none;align=left;verticalAlign=middle;whiteSpace=wrap;rounded=0;glass=0;" parent="iMbrbaBTNEFGXNvbshlo-188" vertex="1">
          <mxGeometry x="80" width="130" height="13.333333333333332" as="geometry" />
        </mxCell>
        <mxCell id="iMbrbaBTNEFGXNvbshlo-191" value="" style="group" parent="YzW6MO2JGgyKq07XsfAy-12" vertex="1" connectable="0">
          <mxGeometry y="47" width="210" height="13.333333333333332" as="geometry" />
        </mxCell>
        <mxCell id="iMbrbaBTNEFGXNvbshlo-192" value="INT" style="text;html=1;strokeColor=none;fillColor=none;align=left;verticalAlign=middle;whiteSpace=wrap;rounded=0;glass=0;spacingLeft=3;" parent="iMbrbaBTNEFGXNvbshlo-191" vertex="1">
          <mxGeometry width="70" height="13.333333333333332" as="geometry" />
        </mxCell>
        <mxCell id="iMbrbaBTNEFGXNvbshlo-193" value="Min Players" style="text;html=1;strokeColor=none;fillColor=none;align=left;verticalAlign=middle;whiteSpace=wrap;rounded=0;glass=0;" parent="iMbrbaBTNEFGXNvbshlo-191" vertex="1">
          <mxGeometry x="80" width="130" height="13.333333333333332" as="geometry" />
        </mxCell>
        <mxCell id="iMbrbaBTNEFGXNvbshlo-194" value="" style="group" parent="YzW6MO2JGgyKq07XsfAy-12" vertex="1" connectable="0">
          <mxGeometry y="60.333333333333314" width="210" height="13.333333333333332" as="geometry" />
        </mxCell>
        <mxCell id="iMbrbaBTNEFGXNvbshlo-195" value="INT" style="text;html=1;strokeColor=none;fillColor=none;align=left;verticalAlign=middle;whiteSpace=wrap;rounded=0;glass=0;spacingLeft=3;" parent="iMbrbaBTNEFGXNvbshlo-194" vertex="1">
          <mxGeometry width="70" height="13.333333333333332" as="geometry" />
        </mxCell>
        <mxCell id="iMbrbaBTNEFGXNvbshlo-196" value="Max Players" style="text;html=1;strokeColor=none;fillColor=none;align=left;verticalAlign=middle;whiteSpace=wrap;rounded=0;glass=0;" parent="iMbrbaBTNEFGXNvbshlo-194" vertex="1">
          <mxGeometry x="80" width="130" height="13.333333333333332" as="geometry" />
        </mxCell>
        <mxCell id="iMbrbaBTNEFGXNvbshlo-197" value="" style="group" parent="YzW6MO2JGgyKq07XsfAy-12" vertex="1" connectable="0">
          <mxGeometry y="33.666666666666686" width="210" height="13.333333333333332" as="geometry" />
        </mxCell>
        <mxCell id="iMbrbaBTNEFGXNvbshlo-198" value="VARCHAR" style="text;html=1;strokeColor=none;fillColor=none;align=left;verticalAlign=middle;whiteSpace=wrap;rounded=0;glass=0;spacingLeft=3;" parent="iMbrbaBTNEFGXNvbshlo-197" vertex="1">
          <mxGeometry width="70" height="13.333333333333332" as="geometry" />
        </mxCell>
        <mxCell id="iMbrbaBTNEFGXNvbshlo-199" value="Level Name" style="text;html=1;strokeColor=none;fillColor=none;align=left;verticalAlign=middle;whiteSpace=wrap;rounded=0;glass=0;" parent="iMbrbaBTNEFGXNvbshlo-197" vertex="1">
          <mxGeometry x="80" width="130" height="13.333333333333332" as="geometry" />
        </mxCell>
        <mxCell id="M63y9VsfOIZPacP70S8h-18" value="&lt;font style=&quot;font-size: 32px&quot;&gt;From Connection to Game&lt;/font&gt;" style="text;html=1;strokeColor=none;fillColor=none;align=center;verticalAlign=top;whiteSpace=wrap;rounded=0;" parent="BmKUf66JoiR6lxN3HfAb-2" vertex="1">
          <mxGeometry y="-1171" width="1652" height="48" as="geometry" />
        </mxCell>
        <mxCell id="M63y9VsfOIZPacP70S8h-19" value="By Ashley Sands" style="text;html=1;strokeColor=none;fillColor=none;align=center;verticalAlign=middle;whiteSpace=wrap;rounded=0;fontSize=16;" parent="BmKUf66JoiR6lxN3HfAb-2" vertex="1">
          <mxGeometry x="752" y="-1098" width="151" height="20" as="geometry" />
        </mxCell>
        <mxCell id="Gk83BuQbbGuSDowAynj9-169" value="&lt;font style=&quot;font-size: 24px&quot;&gt;A Scalable Solution For An Online Gaming Service&amp;nbsp;&amp;nbsp;&lt;/font&gt;" style="text;html=1;strokeColor=none;fillColor=none;align=center;verticalAlign=top;whiteSpace=wrap;rounded=0;" parent="BmKUf66JoiR6lxN3HfAb-2" vertex="1">
          <mxGeometry y="-1135" width="1652" height="48" as="geometry" />
        </mxCell>
        <mxCell id="1" parent="0" />
        <mxCell id="iMbrbaBTNEFGXNvbshlo-79" style="edgeStyle=orthogonalEdgeStyle;rounded=0;orthogonalLoop=1;jettySize=auto;html=1;exitX=1;exitY=0.5;exitDx=0;exitDy=0;entryX=0;entryY=0.5;entryDx=0;entryDy=0;fillColor=#dae8fc;strokeColor=#6c8ebf;endArrow=none;endFill=0;" parent="1" source="iMbrbaBTNEFGXNvbshlo-74" target="iMbrbaBTNEFGXNvbshlo-61" edge="1">
          <mxGeometry relative="1" as="geometry">
            <Array as="points">
              <mxPoint x="1515" y="304" />
              <mxPoint x="1515" y="210" />
              <mxPoint x="1265" y="210" />
              <mxPoint x="1265" y="117" />
            </Array>
          </mxGeometry>
        </mxCell>
        <mxCell id="iMbrbaBTNEFGXNvbshlo-76" style="edgeStyle=orthogonalEdgeStyle;rounded=0;orthogonalLoop=1;jettySize=auto;html=1;exitX=1;exitY=0.75;exitDx=0;exitDy=0;entryX=0;entryY=0.5;entryDx=0;entryDy=0;fillColor=#ffe6cc;strokeColor=#d79b00;endArrow=none;endFill=0;" parent="1" source="iMbrbaBTNEFGXNvbshlo-58" target="iMbrbaBTNEFGXNvbshlo-42" edge="1">
          <mxGeometry relative="1" as="geometry">
            <Array as="points">
              <mxPoint x="1495" y="144" />
              <mxPoint x="1515" y="144" />
              <mxPoint x="1515" y="190" />
              <mxPoint x="1255" y="190" />
              <mxPoint x="1255" y="250" />
            </Array>
            <mxPoint x="1495" y="157" as="sourcePoint" />
          </mxGeometry>
        </mxCell>
        <mxCell id="iMbrbaBTNEFGXNvbshlo-56" style="edgeStyle=orthogonalEdgeStyle;rounded=0;orthogonalLoop=1;jettySize=auto;html=1;exitX=1;exitY=0.5;exitDx=0;exitDy=0;entryX=0;entryY=0.5;entryDx=0;entryDy=0;endArrow=none;endFill=0;" parent="1" source="iMbrbaBTNEFGXNvbshlo-18" target="iMbrbaBTNEFGXNvbshlo-42" edge="1">
          <mxGeometry relative="1" as="geometry" />
        </mxCell>
        <mxCell id="iMbrbaBTNEFGXNvbshlo-57" value="" style="group" parent="1" vertex="1" connectable="0">
          <mxGeometry x="1285" y="90" width="210" height="90" as="geometry" />
        </mxCell>
        <mxCell id="iMbrbaBTNEFGXNvbshlo-58" value="" style="shape=internalStorage;whiteSpace=wrap;html=1;backgroundOutline=1;strokeWidth=1;align=center;dx=69;dy=19;" parent="iMbrbaBTNEFGXNvbshlo-57" vertex="1">
          <mxGeometry width="210" height="65" as="geometry" />
        </mxCell>
        <mxCell id="iMbrbaBTNEFGXNvbshlo-59" value="Active Lobby" style="text;html=1;strokeColor=none;fillColor=none;align=center;verticalAlign=middle;whiteSpace=wrap;rounded=0;" parent="iMbrbaBTNEFGXNvbshlo-57" vertex="1">
          <mxGeometry x="56.54000000000002" width="153.46" height="20" as="geometry" />
        </mxCell>
        <mxCell id="iMbrbaBTNEFGXNvbshlo-60" value="" style="group" parent="iMbrbaBTNEFGXNvbshlo-57" vertex="1" connectable="0">
          <mxGeometry y="20.333333333333314" width="210" height="13.333333333333332" as="geometry" />
        </mxCell>
        <mxCell id="iMbrbaBTNEFGXNvbshlo-61" value="INT" style="text;html=1;strokeColor=none;fillColor=none;align=left;verticalAlign=middle;whiteSpace=wrap;rounded=0;glass=0;spacingLeft=3;" parent="iMbrbaBTNEFGXNvbshlo-60" vertex="1">
          <mxGeometry width="70" height="13.333333333333332" as="geometry" />
        </mxCell>
        <mxCell id="iMbrbaBTNEFGXNvbshlo-62" value="Unique ID" style="text;html=1;strokeColor=none;fillColor=none;align=left;verticalAlign=middle;whiteSpace=wrap;rounded=0;glass=0;" parent="iMbrbaBTNEFGXNvbshlo-60" vertex="1">
          <mxGeometry x="80" width="130" height="13.333333333333332" as="geometry" />
        </mxCell>
        <mxCell id="iMbrbaBTNEFGXNvbshlo-63" value="" style="group" parent="iMbrbaBTNEFGXNvbshlo-57" vertex="1" connectable="0">
          <mxGeometry y="47" width="210" height="13.333333333333332" as="geometry" />
        </mxCell>
        <mxCell id="iMbrbaBTNEFGXNvbshlo-64" value="INT" style="text;html=1;strokeColor=none;fillColor=none;align=left;verticalAlign=middle;whiteSpace=wrap;rounded=0;glass=0;spacingLeft=3;" parent="iMbrbaBTNEFGXNvbshlo-63" vertex="1">
          <mxGeometry width="70" height="13.333333333333332" as="geometry" />
        </mxCell>
        <mxCell id="iMbrbaBTNEFGXNvbshlo-65" value="&lt;span style=&quot;background-color: rgb(255 , 255 , 255)&quot;&gt;Game Slot&lt;/span&gt;" style="text;html=1;strokeColor=none;fillColor=none;align=left;verticalAlign=middle;whiteSpace=wrap;rounded=0;glass=0;" parent="iMbrbaBTNEFGXNvbshlo-63" vertex="1">
          <mxGeometry x="80" width="130" height="13.333333333333332" as="geometry" />
        </mxCell>
        <mxCell id="iMbrbaBTNEFGXNvbshlo-69" value="" style="group" parent="iMbrbaBTNEFGXNvbshlo-57" vertex="1" connectable="0">
          <mxGeometry y="33.666666666666686" width="210" height="13.333333333333332" as="geometry" />
        </mxCell>
        <mxCell id="iMbrbaBTNEFGXNvbshlo-70" value="INT" style="text;html=1;strokeColor=none;fillColor=none;align=left;verticalAlign=middle;whiteSpace=wrap;rounded=0;glass=0;spacingLeft=3;" parent="iMbrbaBTNEFGXNvbshlo-69" vertex="1">
          <mxGeometry width="70" height="13.333333333333332" as="geometry" />
        </mxCell>
        <mxCell id="iMbrbaBTNEFGXNvbshlo-71" value="&lt;span style=&quot;background-color: rgb(255 , 255 , 255)&quot;&gt;Level ID&lt;/span&gt;" style="text;html=1;strokeColor=none;fillColor=none;align=left;verticalAlign=middle;whiteSpace=wrap;rounded=0;glass=0;" parent="iMbrbaBTNEFGXNvbshlo-69" vertex="1">
          <mxGeometry x="80" width="130" height="13.333333333333332" as="geometry" />
        </mxCell>
        <mxCell id="iMbrbaBTNEFGXNvbshlo-75" style="edgeStyle=orthogonalEdgeStyle;rounded=0;orthogonalLoop=1;jettySize=auto;html=1;exitX=1;exitY=0.5;exitDx=0;exitDy=0;entryX=0;entryY=0.5;entryDx=0;entryDy=0;endArrow=none;endFill=0;" parent="1" source="iMbrbaBTNEFGXNvbshlo-15" target="iMbrbaBTNEFGXNvbshlo-61" edge="1">
          <mxGeometry relative="1" as="geometry" />
        </mxCell>
        <mxCell id="bdRot_4KN6-E01JKmk0H-26" value="fuck off" parent="0" />
        <mxCell id="bdRot_4KN6-E01JKmk0H-16" value="Wait For Players To Join" style="text;html=1;strokeColor=none;fillColor=none;align=center;verticalAlign=top;whiteSpace=wrap;rounded=0;glass=0;fontColor=#050000;spacing=-3;fontStyle=1" parent="bdRot_4KN6-E01JKmk0H-26" vertex="1">
          <mxGeometry x="926" y="-665" width="308" height="20" as="geometry" />
        </mxCell>
        <mxCell id="bdRot_4KN6-E01JKmk0H-1" value="Transition to game Server" style="text;html=1;align=center;verticalAlign=top;whiteSpace=wrap;rounded=0;glass=0;spacing=-3;fontStyle=1" parent="bdRot_4KN6-E01JKmk0H-26" vertex="1">
          <mxGeometry x="736" y="-644" width="510" height="20" as="geometry" />
        </mxCell>
        <mxCell id="Gk83BuQbbGuSDowAynj9-1" value="" style="aspect=fixed;html=1;points=[];align=center;image;fontSize=12;image=img/lib/mscae/SQL_Database_generic.svg;" parent="bdRot_4KN6-E01JKmk0H-26" vertex="1">
          <mxGeometry x="409" y="372" width="103.36" height="136" as="geometry" />
        </mxCell>
        <mxCell id="Gk83BuQbbGuSDowAynj9-21" value="Transition to Lobby Server" style="text;html=1;align=center;verticalAlign=top;whiteSpace=wrap;rounded=0;glass=0;spacing=-3;fontStyle=1" parent="bdRot_4KN6-E01JKmk0H-26" vertex="1">
          <mxGeometry x="292" y="-643" width="203" height="20" as="geometry" />
        </mxCell>
        <mxCell id="Gk83BuQbbGuSDowAynj9-138" value="" style="aspect=fixed;html=1;points=[];align=center;image;fontSize=12;image=img/lib/mscae/SQL_Database_generic.svg;" parent="bdRot_4KN6-E01JKmk0H-26" vertex="1">
          <mxGeometry x="770" y="-136" width="103.36" height="136" as="geometry" />
        </mxCell>
        <mxCell id="bdRot_4KN6-E01JKmk0H-28" value="Game Layer" parent="0" />
        <mxCell id="bdRot_4KN6-E01JKmk0H-29" value="" style="endArrow=classic;html=1;strokeColor=#050000;fontColor=#050000;exitX=1;exitY=0.5;exitDx=0;exitDy=0;endFill=1;" parent="bdRot_4KN6-E01JKmk0H-28" source="bdRot_4KN6-E01JKmk0H-1" edge="1">
          <mxGeometry width="50" height="50" relative="1" as="geometry">
            <mxPoint x="1226" y="-596" as="sourcePoint" />
            <mxPoint x="1651" y="-636" as="targetPoint" />
          </mxGeometry>
        </mxCell>
        <mxCell id="bdRot_4KN6-E01JKmk0H-30" value="" style="endArrow=classic;html=1;strokeColor=#000000;fontColor=#050000;" parent="bdRot_4KN6-E01JKmk0H-28" edge="1">
          <mxGeometry width="50" height="50" relative="1" as="geometry">
            <mxPoint x="1426" y="-635" as="sourcePoint" />
            <mxPoint x="1426" y="-586" as="targetPoint" />
          </mxGeometry>
        </mxCell>
        <mxCell id="bdRot_4KN6-E01JKmk0H-32" style="edgeStyle=orthogonalEdgeStyle;rounded=0;orthogonalLoop=1;jettySize=auto;html=1;startArrow=none;startFill=0;endArrow=classic;endFill=1;strokeColor=#000000;fontColor=#050000;" parent="bdRot_4KN6-E01JKmk0H-28" source="bdRot_4KN6-E01JKmk0H-31" edge="1">
          <mxGeometry relative="1" as="geometry">
            <mxPoint x="1649" y="-561" as="targetPoint" />
          </mxGeometry>
        </mxCell>
        <mxCell id="Gk83BuQbbGuSDowAynj9-4" value="Untitled Layer" parent="0" />
        <mxCell id="iMbrbaBTNEFGXNvbshlo-182" style="edgeStyle=elbowEdgeStyle;rounded=0;orthogonalLoop=1;jettySize=auto;elbow=vertical;html=1;exitX=0.5;exitY=1;exitDx=0;exitDy=0;startArrow=none;startFill=0;endArrow=classic;endFill=1;strokeColor=#000000;fontColor=#050000;entryX=0;entryY=0.5;entryDx=0;entryDy=0;" parent="Gk83BuQbbGuSDowAynj9-4" source="iMbrbaBTNEFGXNvbshlo-160" target="iMbrbaBTNEFGXNvbshlo-181" edge="1">
          <mxGeometry relative="1" as="geometry">
            <mxPoint x="236" y="-362" as="targetPoint" />
            <Array as="points">
              <mxPoint x="194" y="-325" />
              <mxPoint x="188" y="-348" />
              <mxPoint x="315" y="-362" />
            </Array>
            <mxPoint x="135" y="-372" as="sourcePoint" />
          </mxGeometry>
        </mxCell>
        <mxCell id="iMbrbaBTNEFGXNvbshlo-160" value="" style="rhombus;whiteSpace=wrap;html=1;rounded=0;glass=0;strokeColor=#260000;fillColor=#ffffff;fontColor=#FF0000;align=left;" parent="Gk83BuQbbGuSDowAynj9-4" vertex="1">
          <mxGeometry x="93" y="-452" width="80" height="80" as="geometry" />
        </mxCell>
        <mxCell id="iMbrbaBTNEFGXNvbshlo-162" value="&amp;nbsp;Available Lobby" style="text;html=1;strokeColor=none;fillColor=none;align=center;verticalAlign=middle;whiteSpace=wrap;rounded=0;glass=0;fontColor=#050000;" parent="Gk83BuQbbGuSDowAynj9-4" vertex="1">
          <mxGeometry x="100" y="-442" width="60" height="60" as="geometry" />
        </mxCell>
        <mxCell id="iMbrbaBTNEFGXNvbshlo-167" style="edgeStyle=elbowEdgeStyle;rounded=0;orthogonalLoop=1;jettySize=auto;elbow=vertical;html=1;startArrow=none;startFill=0;endArrow=classic;endFill=1;strokeColor=#000000;fontColor=#050000;horizontal=1;exitX=1;exitY=0.5;exitDx=0;exitDy=0;entryX=0;entryY=0.5;entryDx=0;entryDy=0;" parent="Gk83BuQbbGuSDowAynj9-4" source="iMbrbaBTNEFGXNvbshlo-160" target="iMbrbaBTNEFGXNvbshlo-94" edge="1">
          <mxGeometry relative="1" as="geometry">
            <mxPoint x="332" y="-462" as="targetPoint" />
            <Array as="points">
              <mxPoint x="197" y="-412" />
              <mxPoint x="293" y="-462" />
            </Array>
            <mxPoint x="178" y="-462" as="sourcePoint" />
          </mxGeometry>
        </mxCell>
        <mxCell id="iMbrbaBTNEFGXNvbshlo-169" value="&lt;b&gt;Yes&lt;/b&gt;" style="text;html=1;strokeColor=none;fillColor=none;align=center;verticalAlign=middle;whiteSpace=wrap;rounded=0;glass=0;fontColor=#050000;" parent="Gk83BuQbbGuSDowAynj9-4" vertex="1">
          <mxGeometry x="170" y="-433" width="40" height="20" as="geometry" />
        </mxCell>
        <mxCell id="iMbrbaBTNEFGXNvbshlo-179" value="&lt;b&gt;No&lt;/b&gt;" style="text;html=1;strokeColor=none;fillColor=none;align=center;verticalAlign=middle;whiteSpace=wrap;rounded=0;glass=0;fontColor=#050000;" parent="Gk83BuQbbGuSDowAynj9-4" vertex="1">
          <mxGeometry x="147" y="-346" width="40" height="20" as="geometry" />
        </mxCell>
        <mxCell id="iMbrbaBTNEFGXNvbshlo-183" value="Join Lobby" style="html=1;strokeWidth=1;align=center;" parent="Gk83BuQbbGuSDowAynj9-4" vertex="1">
          <mxGeometry x="216" y="-714" width="120" height="50" as="geometry" />
        </mxCell>
        <mxCell id="iMbrbaBTNEFGXNvbshlo-184" style="edgeStyle=elbowEdgeStyle;rounded=0;orthogonalLoop=1;jettySize=auto;elbow=vertical;html=1;exitX=0.5;exitY=0;exitDx=0;exitDy=0;startArrow=none;startFill=0;endArrow=classic;endFill=1;strokeColor=#000000;fontColor=#050000;" parent="Gk83BuQbbGuSDowAynj9-4" source="iMbrbaBTNEFGXNvbshlo-181" target="iMbrbaBTNEFGXNvbshlo-94" edge="1">
          <mxGeometry relative="1" as="geometry">
            <mxPoint x="266" y="-609" as="targetPoint" />
          </mxGeometry>
        </mxCell>
        <mxCell id="iMbrbaBTNEFGXNvbshlo-181" value="Create New Lobby" style="html=1;strokeWidth=1;align=center;" parent="Gk83BuQbbGuSDowAynj9-4" vertex="1">
          <mxGeometry x="211" y="-350" width="110" height="50" as="geometry" />
        </mxCell>
        <mxCell id="Gk83BuQbbGuSDowAynj9-5" style="edgeStyle=orthogonalEdgeStyle;rounded=0;orthogonalLoop=1;jettySize=auto;html=1;exitX=0.5;exitY=1;exitDx=0;exitDy=0;entryX=0.5;entryY=0;entryDx=0;entryDy=0;strokeColor=#000000;" parent="Gk83BuQbbGuSDowAynj9-4" source="BmKUf66JoiR6lxN3HfAb-47" target="iMbrbaBTNEFGXNvbshlo-160" edge="1">
          <mxGeometry relative="1" as="geometry" />
        </mxCell>
        <mxCell id="Gk83BuQbbGuSDowAynj9-6" style="edgeStyle=orthogonalEdgeStyle;rounded=0;orthogonalLoop=1;jettySize=auto;html=1;strokeColor=#000000;exitX=0.5;exitY=0;exitDx=0;exitDy=0;" parent="Gk83BuQbbGuSDowAynj9-4" source="iMbrbaBTNEFGXNvbshlo-94" edge="1">
          <mxGeometry relative="1" as="geometry">
            <mxPoint x="266" y="-634" as="targetPoint" />
            <mxPoint x="266" y="-438" as="sourcePoint" />
          </mxGeometry>
        </mxCell>
        <mxCell id="Gk83BuQbbGuSDowAynj9-7" value="" style="endArrow=classic;html=1;strokeColor=#000000;entryX=0.5;entryY=1;entryDx=0;entryDy=0;" parent="Gk83BuQbbGuSDowAynj9-4" edge="1">
          <mxGeometry width="50" height="50" relative="1" as="geometry">
            <mxPoint x="276" y="-634" as="sourcePoint" />
            <mxPoint x="276" y="-664" as="targetPoint" />
          </mxGeometry>
        </mxCell>
        <mxCell id="Gk83BuQbbGuSDowAynj9-102" value="Untitled Layer" parent="0" />
        <mxCell id="Gk83BuQbbGuSDowAynj9-101" style="edgeStyle=orthogonalEdgeStyle;rounded=0;orthogonalLoop=1;jettySize=auto;html=1;endArrow=none;endFill=0;entryX=0;entryY=0.5;entryDx=0;entryDy=0;exitX=0.98;exitY=0.45;exitDx=0;exitDy=0;exitPerimeter=0;" parent="Gk83BuQbbGuSDowAynj9-102" source="Gk83BuQbbGuSDowAynj9-21" target="bdRot_4KN6-E01JKmk0H-1" edge="1">
          <mxGeometry relative="1" as="geometry">
            <mxPoint x="759" y="-634" as="targetPoint" />
            <mxPoint x="553" y="-634" as="sourcePoint" />
            <Array as="points" />
          </mxGeometry>
        </mxCell>
        <mxCell id="Gk83BuQbbGuSDowAynj9-103" value="" style="endArrow=none;dashed=1;html=1;strokeColor=#000000;entryX=0.908;entryY=1.02;entryDx=0;entryDy=0;entryPerimeter=0;endFill=0;startArrow=classic;startFill=1;" parent="Gk83BuQbbGuSDowAynj9-102" target="Gk83BuQbbGuSDowAynj9-12" edge="1">
          <mxGeometry width="50" height="50" relative="1" as="geometry">
            <mxPoint x="520" y="-634" as="sourcePoint" />
            <mxPoint x="542" y="-694" as="targetPoint" />
          </mxGeometry>
        </mxCell>
        <mxCell id="Gk83BuQbbGuSDowAynj9-109" value="Acitve Users" style="ellipse;shape=cloud;whiteSpace=wrap;html=1;gradientColor=#b3b3b3;fillColor=#f5f5f5;strokeColor=#666666;" parent="Gk83BuQbbGuSDowAynj9-102" vertex="1">
          <mxGeometry x="272" y="260" width="130" height="86" as="geometry" />
        </mxCell>
        <mxCell id="Gk83BuQbbGuSDowAynj9-110" value="Lobbies" style="ellipse;shape=cloud;whiteSpace=wrap;html=1;gradientColor=#b3b3b3;fillColor=#f5f5f5;strokeColor=#666666;" parent="Gk83BuQbbGuSDowAynj9-102" vertex="1">
          <mxGeometry x="543" y="296" width="130" height="86" as="geometry" />
        </mxCell>
        <mxCell id="Gk83BuQbbGuSDowAynj9-111" value="Active Games" style="ellipse;shape=cloud;whiteSpace=wrap;html=1;gradientColor=#b3b3b3;fillColor=#f5f5f5;strokeColor=#666666;" parent="Gk83BuQbbGuSDowAynj9-102" vertex="1">
          <mxGeometry x="571" y="455" width="130" height="86" as="geometry" />
        </mxCell>
        <mxCell id="Gk83BuQbbGuSDowAynj9-112" value="Game Slots" style="ellipse;shape=cloud;whiteSpace=wrap;html=1;gradientColor=#b3b3b3;fillColor=#f5f5f5;strokeColor=#666666;" parent="Gk83BuQbbGuSDowAynj9-102" vertex="1">
          <mxGeometry x="391" y="560" width="130" height="86" as="geometry" />
        </mxCell>
        <mxCell id="Gk83BuQbbGuSDowAynj9-113" value="Levels" style="ellipse;shape=cloud;whiteSpace=wrap;html=1;gradientColor=#b3b3b3;fillColor=#f5f5f5;strokeColor=#666666;" parent="Gk83BuQbbGuSDowAynj9-102" vertex="1">
          <mxGeometry x="209" y="455" width="130" height="86" as="geometry" />
        </mxCell>
        <mxCell id="Gk83BuQbbGuSDowAynj9-116" value="" style="endArrow=none;startArrow=none;html=1;strokeColor=#000000;exitX=0.88;exitY=0.25;exitDx=0;exitDy=0;exitPerimeter=0;startFill=0;endFill=0;" parent="Gk83BuQbbGuSDowAynj9-102" source="Gk83BuQbbGuSDowAynj9-113" target="Gk83BuQbbGuSDowAynj9-1" edge="1">
          <mxGeometry width="50" height="50" relative="1" as="geometry">
            <mxPoint x="786" y="527" as="sourcePoint" />
            <mxPoint x="836" y="477" as="targetPoint" />
          </mxGeometry>
        </mxCell>
        <mxCell id="Gk83BuQbbGuSDowAynj9-117" value="" style="endArrow=none;startArrow=none;html=1;strokeColor=#000000;exitX=0.55;exitY=0.95;exitDx=0;exitDy=0;exitPerimeter=0;startFill=0;endFill=0;" parent="Gk83BuQbbGuSDowAynj9-102" source="Gk83BuQbbGuSDowAynj9-109" target="Gk83BuQbbGuSDowAynj9-1" edge="1">
          <mxGeometry width="50" height="50" relative="1" as="geometry">
            <mxPoint x="333.4000000000001" y="486.5" as="sourcePoint" />
            <mxPoint x="419" y="463.74067599067575" as="targetPoint" />
          </mxGeometry>
        </mxCell>
        <mxCell id="Gk83BuQbbGuSDowAynj9-118" value="" style="endArrow=none;startArrow=none;html=1;strokeColor=#000000;exitX=0.13;exitY=0.77;exitDx=0;exitDy=0;exitPerimeter=0;startFill=0;endFill=0;entryX=1;entryY=0.144;entryDx=0;entryDy=0;entryPerimeter=0;" parent="Gk83BuQbbGuSDowAynj9-102" source="Gk83BuQbbGuSDowAynj9-110" target="Gk83BuQbbGuSDowAynj9-1" edge="1">
          <mxGeometry width="50" height="50" relative="1" as="geometry">
            <mxPoint x="353.5" y="351.7000000000003" as="sourcePoint" />
            <mxPoint x="419" y="406.64666325311464" as="targetPoint" />
          </mxGeometry>
        </mxCell>
        <mxCell id="Gk83BuQbbGuSDowAynj9-119" value="" style="endArrow=none;startArrow=none;html=1;strokeColor=#000000;exitX=0.4;exitY=0.1;exitDx=0;exitDy=0;exitPerimeter=0;startFill=0;endFill=0;" parent="Gk83BuQbbGuSDowAynj9-102" source="Gk83BuQbbGuSDowAynj9-112" target="Gk83BuQbbGuSDowAynj9-1" edge="1">
          <mxGeometry width="50" height="50" relative="1" as="geometry">
            <mxPoint x="333.4000000000001" y="486.5" as="sourcePoint" />
            <mxPoint x="419" y="463.7406759906762" as="targetPoint" />
          </mxGeometry>
        </mxCell>
        <mxCell id="Gk83BuQbbGuSDowAynj9-121" value="" style="endArrow=none;startArrow=none;html=1;strokeColor=#000000;exitX=0.07;exitY=0.4;exitDx=0;exitDy=0;exitPerimeter=0;startFill=0;endFill=0;" parent="Gk83BuQbbGuSDowAynj9-102" source="Gk83BuQbbGuSDowAynj9-111" target="Gk83BuQbbGuSDowAynj9-1" edge="1">
          <mxGeometry width="50" height="50" relative="1" as="geometry">
            <mxPoint x="580.0999999999999" y="508.4000000000001" as="sourcePoint" />
            <mxPoint x="461.3313219284603" y="518" as="targetPoint" />
          </mxGeometry>
        </mxCell>
        <mxCell id="Gk83BuQbbGuSDowAynj9-154" style="edgeStyle=none;rounded=0;orthogonalLoop=1;jettySize=auto;html=1;startArrow=none;startFill=0;endArrow=none;endFill=0;strokeColor=#000000;" parent="Gk83BuQbbGuSDowAynj9-102" source="Gk83BuQbbGuSDowAynj9-138" target="Gk83BuQbbGuSDowAynj9-123" edge="1">
          <mxGeometry relative="1" as="geometry" />
        </mxCell>
        <mxCell id="Gk83BuQbbGuSDowAynj9-155" style="edgeStyle=none;rounded=0;orthogonalLoop=1;jettySize=auto;html=1;startArrow=none;startFill=0;endArrow=none;endFill=0;strokeColor=#000000;" parent="Gk83BuQbbGuSDowAynj9-102" source="Gk83BuQbbGuSDowAynj9-138" target="Gk83BuQbbGuSDowAynj9-127" edge="1">
          <mxGeometry relative="1" as="geometry" />
        </mxCell>
        <mxCell id="Gk83BuQbbGuSDowAynj9-156" style="edgeStyle=none;rounded=0;orthogonalLoop=1;jettySize=auto;html=1;startArrow=none;startFill=0;endArrow=none;endFill=0;strokeColor=#000000;" parent="Gk83BuQbbGuSDowAynj9-102" source="Gk83BuQbbGuSDowAynj9-138" target="Gk83BuQbbGuSDowAynj9-129" edge="1">
          <mxGeometry relative="1" as="geometry" />
        </mxCell>
        <mxCell id="Gk83BuQbbGuSDowAynj9-158" style="edgeStyle=none;rounded=0;orthogonalLoop=1;jettySize=auto;html=1;startArrow=none;startFill=0;endArrow=none;endFill=0;strokeColor=#000000;" parent="Gk83BuQbbGuSDowAynj9-102" source="Gk83BuQbbGuSDowAynj9-138" target="Gk83BuQbbGuSDowAynj9-137" edge="1">
          <mxGeometry relative="1" as="geometry" />
        </mxCell>
        <mxCell id="Gk83BuQbbGuSDowAynj9-159" style="edgeStyle=orthogonalEdgeStyle;rounded=0;orthogonalLoop=1;jettySize=auto;html=1;exitX=0;exitY=0.5;exitDx=0;exitDy=0;startArrow=none;startFill=0;endArrow=none;endFill=0;strokeColor=#000000;dashed=1;elbow=vertical;entryX=0.5;entryY=0;entryDx=0;entryDy=0;" parent="Gk83BuQbbGuSDowAynj9-102" source="iMbrbaBTNEFGXNvbshlo-160" target="Gk83BuQbbGuSDowAynj9-128" edge="1">
          <mxGeometry relative="1" as="geometry">
            <mxPoint x="645" y="-248" as="targetPoint" />
            <Array as="points">
              <mxPoint x="73" y="-430" />
              <mxPoint x="73" y="-268" />
              <mxPoint x="645" y="-268" />
            </Array>
          </mxGeometry>
        </mxCell>
        <mxCell id="Gk83BuQbbGuSDowAynj9-160" style="edgeStyle=orthogonalEdgeStyle;rounded=0;orthogonalLoop=1;jettySize=auto;html=1;exitX=0.5;exitY=1;exitDx=0;exitDy=0;dashed=1;startArrow=none;startFill=0;endArrow=none;endFill=0;strokeColor=#000000;" parent="Gk83BuQbbGuSDowAynj9-102" source="iMbrbaBTNEFGXNvbshlo-181" edge="1">
          <mxGeometry relative="1" as="geometry">
            <mxPoint x="266" y="-268" as="targetPoint" />
          </mxGeometry>
        </mxCell>
        <mxCell id="Gk83BuQbbGuSDowAynj9-163" style="edgeStyle=orthogonalEdgeStyle;rounded=0;orthogonalLoop=1;jettySize=auto;html=1;exitX=0.5;exitY=0;exitDx=0;exitDy=0;dashed=1;startArrow=none;startFill=0;endArrow=none;endFill=0;strokeColor=#000000;" parent="Gk83BuQbbGuSDowAynj9-102" source="Gk83BuQbbGuSDowAynj9-126" edge="1">
          <mxGeometry relative="1" as="geometry">
            <mxPoint x="750" y="-644" as="targetPoint" />
            <Array as="points">
              <mxPoint x="1220" y="-288" />
              <mxPoint x="750" y="-288" />
            </Array>
          </mxGeometry>
        </mxCell>
        <mxCell id="Gk83BuQbbGuSDowAynj9-168" style="edgeStyle=orthogonalEdgeStyle;rounded=0;orthogonalLoop=1;jettySize=auto;html=1;exitX=1;exitY=0.5;exitDx=0;exitDy=0;entryX=0.5;entryY=0;entryDx=0;entryDy=0;dashed=1;startArrow=none;startFill=0;endArrow=none;endFill=0;strokeColor=#000000;exitPerimeter=0;" parent="Gk83BuQbbGuSDowAynj9-102" source="iMbrbaBTNEFGXNvbshlo-216" target="Gk83BuQbbGuSDowAynj9-136" edge="1">
          <mxGeometry relative="1" as="geometry">
            <mxPoint x="703" y="-587" as="sourcePoint" />
            <mxPoint x="821" y="-242" as="targetPoint" />
            <Array as="points">
              <mxPoint x="727" y="-587" />
              <mxPoint x="727" y="-268" />
              <mxPoint x="940" y="-268" />
            </Array>
          </mxGeometry>
        </mxCell>
        <mxCell id="Gk83BuQbbGuSDowAynj9-171" value="&lt;h1&gt;&lt;span style=&quot;font-weight: normal&quot;&gt;&lt;font style=&quot;font-size: 30px&quot;&gt;MYSQL Database&lt;/font&gt;&lt;/span&gt;&lt;/h1&gt;&lt;p&gt;&lt;font style=&quot;font-size: 20px&quot;&gt;A MYSQL database is used to track the progress of a user as they move through the network and also insures that each user arrives at the correct destination.&lt;/font&gt;&lt;/p&gt;&lt;p&gt;&lt;span style=&quot;font-size: 20px&quot;&gt;The database is used to track any available lobbies and game slots.&lt;/span&gt;&lt;/p&gt;&lt;p&gt;&lt;font style=&quot;font-size: 20px&quot;&gt;&lt;br&gt;&lt;/font&gt;&lt;/p&gt;" style="text;html=1;strokeColor=none;fillColor=none;spacing=5;spacingTop=-20;whiteSpace=wrap;overflow=hidden;rounded=0;shadow=0;glass=1;comic=0;fontSize=16;align=center;verticalAlign=middle;" parent="Gk83BuQbbGuSDowAynj9-102" vertex="1">
          <mxGeometry x="1340" y="-430" width="285" height="340" as="geometry" />
        </mxCell>
        <mxCell id="Gk83BuQbbGuSDowAynj9-172" value="&lt;h1&gt;&lt;span style=&quot;font-weight: normal&quot;&gt;&lt;font style=&quot;font-size: 30px&quot;&gt;Initial Connection&lt;/font&gt;&lt;/span&gt;&lt;/h1&gt;&lt;p&gt;&lt;font style=&quot;font-size: 20px&quot;&gt;During the initial connection stages, the user is registered into network by assigning them a unique registration&amp;nbsp;key. The key is then used to identify users when changing server or reconnecting to a server if the connection is lost&lt;/font&gt;&lt;/p&gt;" style="text;html=1;strokeColor=none;fillColor=none;spacing=5;spacingTop=-20;whiteSpace=wrap;overflow=hidden;rounded=0;shadow=0;glass=1;comic=0;fontSize=16;align=center;verticalAlign=middle;" parent="Gk83BuQbbGuSDowAynj9-102" vertex="1">
          <mxGeometry x="46" y="-1067" width="371" height="280" as="geometry" />
        </mxCell>
        <mxCell id="Gk83BuQbbGuSDowAynj9-173" value="&lt;p style=&quot;line-height: 190%&quot;&gt;&lt;/p&gt;&lt;h1&gt;&lt;span style=&quot;font-weight: normal&quot;&gt;&lt;font style=&quot;font-size: 30px ; line-height: 120%&quot;&gt;Waiting for a Game Slot&lt;/font&gt;&lt;/span&gt;&lt;/h1&gt;&lt;p style=&quot;font-size: 20px&quot;&gt;&lt;br&gt;&lt;/p&gt;&lt;font style=&quot;font-size: 20px&quot;&gt;&lt;br&gt;&lt;/font&gt;&lt;p&gt;&lt;/p&gt;" style="text;html=1;strokeColor=none;fillColor=none;spacing=5;spacingTop=-20;whiteSpace=wrap;overflow=hidden;rounded=0;shadow=0;glass=1;comic=0;fontSize=16;align=center;" parent="Gk83BuQbbGuSDowAynj9-102" vertex="1">
          <mxGeometry x="450" y="-941" width="730" height="60" as="geometry" />
        </mxCell>
        <mxCell id="Gk83BuQbbGuSDowAynj9-174" value="&lt;h1&gt;&lt;span style=&quot;font-weight: normal&quot;&gt;&lt;font style=&quot;font-size: 30px ; line-height: 120%&quot;&gt;Transition To Game&lt;/font&gt;&lt;/span&gt;&lt;/h1&gt;&lt;p&gt;&lt;font style=&quot;font-size: 20px ; line-height: 120%&quot;&gt;Once the lobby has been assigned a game slot, the server sends each user of the lobby the address of the server that the game will be hosted by, along with level that should be loaded and the players id within the game.&lt;/font&gt;&lt;/p&gt;" style="text;html=1;strokeColor=none;fillColor=none;spacing=5;spacingTop=-20;whiteSpace=wrap;overflow=hidden;rounded=0;shadow=0;glass=1;comic=0;fontSize=16;align=center;verticalAlign=middle;" parent="Gk83BuQbbGuSDowAynj9-102" vertex="1">
          <mxGeometry x="1210" y="-1067" width="371" height="270" as="geometry" />
        </mxCell>
        <mxCell id="Gk83BuQbbGuSDowAynj9-122" value="Active Users" style="swimlane;fontStyle=0;childLayout=stackLayout;horizontal=1;startSize=26;fillColor=#e0e0e0;horizontalStack=0;resizeParent=1;resizeParentMax=0;resizeLast=0;collapsible=0;marginBottom=0;swimlaneFillColor=#ffffff;align=center;fontSize=16;strokeColor=#000000;verticalAlign=middle;" parent="Gk83BuQbbGuSDowAynj9-102" vertex="1">
          <mxGeometry x="280" y="-240" width="200" height="100" as="geometry" />
        </mxCell>
        <mxCell id="Gk83BuQbbGuSDowAynj9-123" value="Contains all information for each active user including there active lobby ID" style="text;strokeColor=none;fillColor=none;spacingLeft=4;spacingRight=4;overflow=hidden;rotatable=0;points=[[0,0.5],[1,0.5]];portConstraint=eastwest;fontSize=14;verticalAlign=middle;align=center;labelPosition=center;verticalLabelPosition=middle;whiteSpace=wrap;" parent="Gk83BuQbbGuSDowAynj9-122" vertex="1">
          <mxGeometry y="26" width="200" height="74" as="geometry" />
        </mxCell>
        <mxCell id="Gk83BuQbbGuSDowAynj9-128" value="Lobbies" style="swimlane;fontStyle=0;childLayout=stackLayout;horizontal=1;startSize=26;fillColor=#e0e0e0;horizontalStack=0;resizeParent=1;resizeParentMax=0;resizeLast=0;collapsible=0;marginBottom=0;swimlaneFillColor=#ffffff;align=center;fontSize=16;strokeColor=#000000;" parent="Gk83BuQbbGuSDowAynj9-102" vertex="1">
          <mxGeometry x="560" y="-240" width="200" height="100" as="geometry" />
        </mxCell>
        <mxCell id="Gk83BuQbbGuSDowAynj9-129" value="Stores the lobby ID used to group players together and associated level ID and game slot" style="text;strokeColor=none;fillColor=none;spacingLeft=4;spacingRight=4;overflow=hidden;rotatable=0;points=[[0,0.5],[1,0.5]];portConstraint=eastwest;fontSize=14;whiteSpace=wrap;align=center;verticalAlign=middle;" parent="Gk83BuQbbGuSDowAynj9-128" vertex="1">
          <mxGeometry y="26" width="200" height="74" as="geometry" />
        </mxCell>
        <mxCell id="Gk83BuQbbGuSDowAynj9-136" value="Game Slots" style="swimlane;fontStyle=0;childLayout=stackLayout;horizontal=1;startSize=26;fillColor=#e0e0e0;horizontalStack=0;resizeParent=1;resizeParentMax=0;resizeLast=0;collapsible=0;marginBottom=0;swimlaneFillColor=#ffffff;align=center;fontSize=16;strokeColor=#000000;" parent="Gk83BuQbbGuSDowAynj9-102" vertex="1">
          <mxGeometry x="840" y="-240" width="200" height="100" as="geometry" />
        </mxCell>
        <mxCell id="Gk83BuQbbGuSDowAynj9-137" value="List of IP&#39;s and ports that games can run on, along with a flag to see if the slot is free or not" style="text;strokeColor=none;fillColor=none;spacingLeft=4;spacingRight=4;overflow=hidden;rotatable=0;points=[[0,0.5],[1,0.5]];portConstraint=eastwest;fontSize=14;whiteSpace=wrap;align=center;verticalAlign=middle;" parent="Gk83BuQbbGuSDowAynj9-136" vertex="1">
          <mxGeometry y="26" width="200" height="74" as="geometry" />
        </mxCell>
        <mxCell id="Gk83BuQbbGuSDowAynj9-126" value="Levels" style="swimlane;fontStyle=0;childLayout=stackLayout;horizontal=1;startSize=26;fillColor=#e0e0e0;horizontalStack=0;resizeParent=1;resizeParentMax=0;resizeLast=0;collapsible=0;marginBottom=0;swimlaneFillColor=#ffffff;align=center;fontSize=16;strokeColor=#000000;" parent="Gk83BuQbbGuSDowAynj9-102" vertex="1">
          <mxGeometry x="1120" y="-240" width="200" height="100" as="geometry" />
        </mxCell>
        <mxCell id="Gk83BuQbbGuSDowAynj9-127" value="Contatines all the information for each level, including it name and min/max players." style="text;strokeColor=none;fillColor=none;spacingLeft=4;spacingRight=4;overflow=hidden;rotatable=0;points=[[0,0.5],[1,0.5]];portConstraint=eastwest;fontSize=14;whiteSpace=wrap;align=center;verticalAlign=middle;" parent="Gk83BuQbbGuSDowAynj9-126" vertex="1">
          <mxGeometry y="26" width="200" height="74" as="geometry" />
        </mxCell>
      </root>
    </mxGraphModel>
  </diagram>
</mxfile>
